<svg width="24" height="24" viewBox="0 0 24 24" fill="none" xmlns="http://www.w3.org/2000/svg">
<path d="M22.5881 7.05888V9.88216H21.1762V16.9411H19.7648V19.7648H18.353V21.1762H16.9411V22.5881H15.5292V24H8.47077V22.5881H7.0589V21.1762H5.64702V19.7648H4.23515V16.9411H2.82374V9.88216H1.41187V7.05888H2.82374V5.64701H5.64702V4.23513H11.2941L12 3.52966L12.7059 4.23513H18.353V5.64701H21.1762V7.05888H22.5881Z" fill="#292524"/>
<path d="M19.7649 14.1178V16.9411H18.353V18.353L16.9411 19.7648L14.4366 21.8822H9.60517L7.05892 19.7648L5.64704 18.353V16.9411H4.23517V14.1178L7.05892 12.7059L12 12L16.9411 12.7059L19.7649 14.1178Z" fill="#CA8A04"/>
<path d="M21.1763 8.47084V9.88225H19.7649V11.2941H16.9411V9.88225H7.05892V11.2941H4.23517V9.88225H2.82376V8.47084L5.64704 7.05896L12 6.35303H16.9411L21.1763 8.47084Z" fill="#FB923C"/>
<path d="M5.64703 8.47083H7.05891V9.88223H5.64703V8.47083Z" fill="#854D0E"/>
<path d="M9.8822 7.05896V8.47084H8.47079V7.05896L9.1765 6.35303L9.8822 7.05896Z" fill="#854D0E"/>
<path d="M18.353 7.05896L18.964 7.7649L18.353 8.47084H16.9411V7.05896L17.647 6.35303L18.353 7.05896Z" fill="#854D0E"/>
<path d="M15.5292 7.05896V8.47084H14.1178V7.05896L14.8235 6.35303L15.5292 7.05896Z" fill="#854D0E"/>
<path d="M4.23517 12.7059H7.05892V14.1178H4.23517V12.7059Z" fill="#854D0E"/>
<path d="M5.64703 18.353H7.05891V19.7649H5.64703V18.353Z" fill="#854D0E"/>
<path d="M16.9411 18.353H18.353V19.7649H16.9411V18.353Z" fill="#854D0E"/>
<path d="M7.0589 11.2941H16.9411V12.7059L7.05892 12.7059L7.0589 11.2941Z" fill="#854D0E"/>
<path d="M16.9411 12.7059L19.7649 12.7059V14.1178H16.9411L16.9411 12.7059Z" fill="#854D0E"/>
<path d="M16.9411 19.7649L16.9411 21.1763H15.5292V22.5882H8.47077V21.1763H7.0589L7.05891 19.7649L9.88218 19.7649V21.1763H14.1178V19.7649L16.9411 19.7649Z" fill="#854D0E"/>
<path d="M2.82376 7.05896H5.64704L5.64703 8.47083L2.82376 8.47084V7.05896Z" fill="#FACC15"/>
<path d="M18.353 7.05896L21.1762 7.05896V8.47084L18.353 8.47084V7.05896Z" fill="#FACC15"/>
<path d="M5.64703 5.64697H18.353L18.353 7.05896L5.64704 7.05896L5.64703 5.64697Z" fill="#FACC15"/>
<path d="M11.2941 2.82373H12.7059V4.23514H11.2941V2.82373Z" fill="#713F12"/>
<path d="M11.2941 0H14.1178V1.41188H11.2941V0Z" fill="#713F12"/>
<path d="M9.8822 1.41187L11.2941 1.41188V2.82373L9.8822 2.82374V1.41187Z" fill="#713F12"/>
</svg>
