<svg width="24" height="24" viewBox="0 0 24 24" fill="none" xmlns="http://www.w3.org/2000/svg">
<g clip-path="url(#clip0_19336_23958)">
<path d="M24 1.41188V22.5881H22.5881V24H2.82375V22.5881H1.41188V21.1763H0V2.82375H1.41188V1.41188H2.82375V0H22.5881V1.41188H24Z" fill="#292524"/>
<path d="M22.5881 19.7648L21.8822 20.4708L22.5881 21.1763V22.5881H2.82375V21.1763H1.41187V19.7648H2.82375V18.353H22.5881V19.7648Z" fill="#D6D3D1"/>
<path d="M22.5881 2.82374V15.5292L21.8822 16.2351H3.52921L2.1178 17.647L1.41187 16.9411V4.23514L3.52921 2.1178H21.8822L22.5881 2.82374Z" fill="#A78BFA"/>
<path d="M22.5881 1.41187V2.82374H18.353L17.647 3.52968H6.35296L5.64702 2.82374H2.82374V1.41187H22.5881Z" fill="#DDD6FE"/>
<path d="M1.41187 2.82374L2.82374 2.82374L2.82374 4.23515H1.41187V2.82374Z" fill="#DDD6FE"/>
<path d="M4.23513 11.2941H5.64701V12.7059H4.23513V11.2941Z" fill="#2E1065"/>
<path d="M18.3529 11.2941H19.7648V12.7059H18.3529V11.2941Z" fill="#2E1065"/>
<path d="M7.05888 11.2941H16.9411V12.7059H7.05888V11.2941Z" fill="#2E1065"/>
<path d="M19.7648 4.23515V8.47077H18.353V9.88218H5.64702V8.47077H4.23515V4.23515H5.64702L5.64702 2.82374H18.353V4.23515H19.7648Z" fill="#2E1065"/>
<path d="M5.64702 4.23515H18.353V8.47077H5.64702V4.23515Z" fill="#D6D3D1"/>
<path d="M9.8822 5.64708H16.9411V7.05895H9.8822V5.64708Z" fill="#78716C"/>
<path d="M2.82376 19.7649H22.5881V21.1763H2.82376V19.7649Z" fill="#78716C"/>
<path d="M7.05891 5.64708H8.47079V7.05895H7.05891V5.64708Z" fill="#78716C"/>
<path d="M2.82375 15.5293H22.5881V16.9411H2.82375V15.5293Z" fill="#5B21B6"/>
<path d="M1.41187 16.9411H2.82375L2.82375 18.353H1.41187V16.9411Z" fill="#5B21B6"/>
</g>
<defs>
<clipPath id="clip0_19336_23958">
<rect width="24" height="24" fill="white"/>
</clipPath>
</defs>
</svg>
