<svg width="24" height="24" viewBox="0 0 24 24" fill="none" xmlns="http://www.w3.org/2000/svg">
<g clip-path="url(#clip0_19336_23954)">
<path d="M19.7648 11.2941V9.88219H16.9411V11.2941H18.353V12.7059H24V14.1178L23.2941 14.8233L24 15.5292V16.9411H18.353V15.5292H16.9411V14.1178H14.1178V15.5292H15.5292V16.9411H16.9411V18.353H15.5292V19.7648H14.1178V21.1763H12.7059V19.7648H11.2941V18.353H9.88219V19.7648H8.47078V21.1763H7.05891V24H5.64703L0.705938 23.2941L0 18.353V16.9411H1.41188V15.5292H5.64703V14.1178H4.23516V12.7059H5.64703V11.2941H7.05891V9.88219H8.47078V11.2941H9.88219V12.7059H11.2941V9.88219H12.7059V8.47078H14.1178V4.23516H12.7059V1.41188H14.1178V0H15.5292V1.41188H16.9411V5.64703H18.353V4.23516H21.1763V5.64703H22.5881V8.47078H24V9.88219H22.5881V11.2941H19.7648Z" fill="#292524"/>
<path d="M8.47078 12.7059H9.88218V14.1178H8.47078V15.5292H7.0589V14.1178H5.64703V12.7059H7.0589L7.76484 13.4119L8.47078 12.7059Z" fill="#FDA4AF"/>
<path d="M15.5292 16.9411V18.353H14.1178V19.7648H12.7059V18.353H11.2941V16.9411H12.7059L13.4119 17.647L14.1178 16.9411H15.5292Z" fill="#FDA4AF"/>
<path d="M15.5292 1.41187V2.82374L14.8235 3.52944L14.1178 2.82374V1.41187H15.5292Z" fill="#FDA4AF"/>
<path d="M22.5881 8.47077V9.88218H21.1762L20.4705 9.17647L21.1762 8.47077H22.5881Z" fill="#FDA4AF"/>
<path d="M16.9411 11.294V12.7059H14.1178V14.1178H12.7059V15.5292H11.2941L11.2941 16.9411L9.88219 16.9411V18.3529H8.47078V19.7648H7.05891L5.64703 21.1762L4.94109 23.294L0 22.5881V18.3529H1.41188V16.9411H5.64703L6.35297 16.2351L7.76484 17.647L11.2941 14.1178V12.7059H12.7059V9.88217H14.1178V8.47076H15.5292V5.64701H16.9411V7.05889H18.353L19.0589 6.35295L19.7648 7.05889V8.47076H16.9411V9.88217H15.5292V11.294H16.9411Z" fill="#CA8A04"/>
<path d="M16.9411 12.7059L18.353 12.706V14.1178H16.9411V12.7059Z" fill="#CA8A04"/>
<path d="M18.353 14.1178H24V15.5293H18.353V14.1178Z" fill="#CA8A04"/>
<path d="M8.47079 12.7059V14.1178H7.05891V12.7059L7.76462 12.0002L8.47079 12.7059Z" fill="#F43F5E"/>
<path d="M14.1178 16.9411V18.3529H12.7059V16.9411L13.4116 16.2354L14.1178 16.9411Z" fill="#F43F5E"/>
<path d="M19.7649 8.47076H21.1763V9.88217H19.7649V8.47076Z" fill="#F43F5E"/>
<path d="M14.1178 2.82373H15.5292V4.23514H14.1178V2.82373Z" fill="#F43F5E"/>
<path d="M7.05891 11.294H8.47078L8.47079 12.7059H7.05891L7.05891 11.294Z" fill="#FECDD3"/>
<path d="M12.7059 15.5292H14.1178V16.9411H12.7059V15.5292Z" fill="#FECDD3"/>
<path d="M5.64703 19.7648H7.05891V21.1762H5.64703V19.7648Z" fill="#A16207"/>
<path d="M9.88219 14.1178H11.2941V15.5292H9.88219V14.1178Z" fill="#A16207"/>
<path d="M5.64703 15.5292H7.05891V16.9411H5.64703V15.5292Z" fill="#A16207"/>
<path d="M8.47078 15.5292L9.88219 15.5292V16.9411H8.47078V15.5292Z" fill="#A16207"/>
<path d="M4.23516 21.1762L5.64703 21.1762V24H0V22.5881H4.23516V21.1762Z" fill="#A16207"/>
<path d="M7.05891 16.9411H8.47078V18.3529H7.05891V16.9411Z" fill="#A16207"/>
<path d="M18.353 5.64699H21.1763V7.05887H18.353V5.64699Z" fill="#EAB308"/>
</g>
<defs>
<clipPath id="clip0_19336_23954">
<rect width="24" height="24" fill="white"/>
</clipPath>
</defs>
</svg>
