<svg width="24" height="24" viewBox="0 0 24 24" fill="none" xmlns="http://www.w3.org/2000/svg">
<g clip-path="url(#clip0_19336_23962)">
<path d="M21.1762 9.88217V12.7059L21.8822 13.4119L21.1762 14.1178V19.7648H19.7648V21.1762H18.353V22.5881H16.9411V24H7.05889V22.5881H5.64702V21.1762H4.23514V19.7648H2.82374V14.1178L2.1178 13.4119L2.82374 12.7059V9.88217H4.23514V8.47076H5.64702V7.05889L6.35295 6.35295L7.05889 7.05889H8.47077V4.23514H9.88217V2.82373H14.1178V4.23514H15.5292V7.05889H16.9411L17.647 6.35295L18.353 7.05889V8.47076H19.7648V9.88217H21.1762Z" fill="#292524"/>
<path d="M19.7648 11.2941V19.7649H18.353L16.9411 21.1763L14.8237 21.8822L12.7059 21.1763V12.706L14.1178 9.88224L16.2352 9.17631L18.353 9.88224L19.7648 11.2941Z" fill="#F43F5E"/>
<path d="M9.8822 9.88226L11.2941 12.706V21.1763L9.17626 21.8823L7.05892 21.1763L5.64704 19.7649H4.23517V11.2941L5.64704 9.88226L7.76439 9.17632L9.8822 9.88226Z" fill="#F43F5E"/>
<path d="M12.706 4.23523H11.2941L9.8822 5.6471V7.05898L12 9.17656L14.1178 7.05898V5.6471L12.706 4.23523Z" fill="#CA8A04"/>
<path d="M12.7059 4.2352H14.1178V5.64708H12.7059V4.2352Z" fill="#57534E"/>
<path d="M9.88219 4.23516H11.2941V5.64703H9.88219V4.23516Z" fill="#57534E"/>
<path d="M12.7059 7.05885H14.1178V8.47073H12.7059V7.05885Z" fill="#854D0E"/>
<path d="M11.294 8.47072L12.7059 8.47073V9.88213H11.294V8.47072Z" fill="#854D0E"/>
<path d="M9.88219 7.0589H11.2941L11.294 8.47072L9.88219 8.47078V7.0589Z" fill="#854D0E"/>
<path d="M16.9411 19.7648H18.353V21.1762H16.9411V19.7648Z" fill="#9F1239"/>
<path d="M7.0589 21.1762H11.2941V22.5881H7.0589V21.1762Z" fill="#9F1239"/>
<path d="M5.64703 19.7648H7.0589L7.0589 21.1762L5.64703 21.1763V19.7648Z" fill="#9F1239"/>
<path d="M12.7059 21.1762L16.9411 21.1762L16.9411 22.5881H12.7059V21.1762Z" fill="#9F1239"/>
<path d="M14.1178 8.47073L18.353 8.47073V9.88214H14.1178L14.1178 8.47073Z" fill="#FDA4AF"/>
<path d="M18.353 9.88214L19.7648 9.88214V11.294H18.353L18.353 9.88214Z" fill="#FDA4AF"/>
<path d="M4.23514 9.88214H5.64702V11.294H4.23514V9.88214Z" fill="#FDA4AF"/>
<path d="M5.64702 8.47073L9.88219 8.47078L9.88217 9.88214L5.64702 9.88214L5.64702 8.47073Z" fill="#FDA4AF"/>
<path d="M9.88217 9.88214L11.294 9.88213L11.2941 12.7059H9.88218L9.88217 9.88214Z" fill="#713F12"/>
<path d="M12.7059 9.88213L14.1178 9.88214L14.1178 12.7059H12.7059L12.7059 9.88213Z" fill="#713F12"/>
<path d="M7.0589 16.9411H9.88218V19.7648L7.0589 19.7648L7.0589 16.9411Z" fill="#713F12"/>
<path d="M5.64702 11.294L8.47078 11.2941V14.1178H5.64703L5.64702 11.294Z" fill="#713F12"/>
<path d="M16.9411 11.2941L18.353 11.294L18.353 12.7059H16.9411V11.2941Z" fill="#713F12"/>
<path d="M14.1178 14.1178H16.9411V16.9411H14.1178V14.1178Z" fill="#713F12"/>
<path d="M1.41187 22.5881H2.82375V24H1.41187V22.5881Z" fill="#713F12"/>
<path d="M2.82375 21.1763H4.23516V22.5881H2.82375L2.82375 21.1763Z" fill="#713F12"/>
<path d="M1.41187 12.7059H2.82375V14.1178H1.41187V12.7059Z" fill="#713F12"/>
<path d="M8.47078 1.41187H9.88219V2.82375H8.47078V1.41187Z" fill="#713F12"/>
<path d="M7.0589 0H8.47078L8.47078 1.41187L7.0589 1.41188V0Z" fill="#713F12"/>
<path d="M22.5881 11.2941H24V12.7059H22.5881V11.2941Z" fill="#713F12"/>
<path d="M16.9411 5.64703H19.7648V7.0589H16.9411V5.64703Z" fill="#713F12"/>
<path d="M2.82375 4.23516H4.23516V5.64703H2.82375V4.23516Z" fill="#713F12"/>
<path d="M15.5292 0H16.9411V1.41188H15.5292V0Z" fill="#713F12"/>
<path d="M0 11.2941H1.41188L1.41187 12.7059L0 12.7059V11.2941Z" fill="#713F12"/>
<path d="M4.23516 5.64703L7.05891 5.64703V7.0589H4.23516L4.23516 5.64703Z" fill="#713F12"/>
<path d="M21.1763 12.7059L22.5881 12.7059V14.1178H21.1763V12.7059Z" fill="#713F12"/>
<path d="M19.7648 4.23516H21.1763V5.64703L19.7648 5.64703V4.23516Z" fill="#713F12"/>
<path d="M14.1178 1.41187L15.5292 1.41188L15.5292 2.82375H14.1178V1.41187Z" fill="#713F12"/>
<path d="M21.1763 22.5881H22.5881V24H21.1763V22.5881Z" fill="#713F12"/>
<path d="M19.7648 21.1763H21.1763L21.1763 22.5881H19.7648V21.1763Z" fill="#713F12"/>
</g>
<defs>
<clipPath id="clip0_19336_23962">
<rect width="24" height="24" fill="white"/>
</clipPath>
</defs>
</svg>
