<svg width="24" height="24" viewBox="0 0 24 24" fill="none" xmlns="http://www.w3.org/2000/svg">
<path d="M18.3515 8.47031V4.23281H16.9406V2.82188H15.5297V4.23281H14.1187V2.82188H12.7078V1.41094H11.2922V0H9.88123V1.41094H8.47029V2.82188H7.05935V4.23281H5.64841V8.47031H4.23279V22.5891H5.64841V24H18.3515V22.5891H19.7625V8.47031H18.3515Z" fill="#292524"/>
<path d="M15.5297 4.23288H16.9406V7.05476H15.5297V4.23288Z" fill="#FACC15"/>
<path d="M12.7078 4.23288H14.1187V7.05476H12.7078V4.23288Z" fill="#FACC15"/>
<path d="M9.88124 1.41101H11.2922V4.23289H9.88124V1.41101Z" fill="#FACC15"/>
<path d="M7.05936 4.23288H8.4703V7.05476H7.05936V4.23288Z" fill="#FACC15"/>
<path d="M5.64844 11.2922V22.5844H18.3563V11.2922H5.64844Z" fill="#EDE9FE"/>
<path d="M9.88125 5.64846H11.2922V7.0594H9.88125V5.64846Z" fill="#EDE9FE"/>
<path d="M7.05937 18.3516H16.9406V19.7625H7.05937V18.3516Z" fill="#5B21B6"/>
<path d="M5.64844 8.47034H18.3563V9.88128H5.64844V8.47034Z" fill="#EC4899"/>
<path d="M14.1188 15.5297H15.5297V16.9406H14.1188V15.5297Z" fill="#EC4899"/>
<path d="M9.88125 14.1187H14.1187L14.1188 15.5297H9.88125V14.1187Z" fill="#EC4899"/>
<path d="M8.47031 15.5297H9.88125L9.88125 16.9406H8.47031V15.5297Z" fill="#EC4899"/>
<path d="M15.5297 11.2922V12.7078H16.9406V21.1781H15.5297V22.589H18.3516V11.2922H15.5297Z" fill="#DDD6FE"/>
<path d="M15.5297 4.23279H16.9406V7.05466H15.5297V4.23279Z" fill="#F97316"/>
<path d="M14.1188 8.47029H18.3563V9.88123H14.1188V8.47029Z" fill="#F472B6"/>
</svg>
