<svg width="24" height="24" viewBox="0 0 24 24" fill="none" xmlns="http://www.w3.org/2000/svg">
<g clip-path="url(#clip0_19336_23961)">
<path d="M24 12.7059V18.353H22.5881V21.1763H21.1763V22.5881H19.7648V24H4.23516V22.5881H2.82375V21.1763H1.41188V18.353H0V12.7059H1.41188V8.47078H2.82375V5.64703H4.23516V4.23516H5.64703V2.82375H7.05891V1.41188H9.88219V0H14.1178V1.41188H16.9411V2.82375H18.353V4.23516H19.7648V5.64703H21.1763V8.47078H22.5881V12.7059H24Z" fill="#292524"/>
<path d="M22.5881 12.7059V18.353H21.1762V19.7648L19.7648 21.1762L12 21.8822L4.23515 21.1762L2.82374 19.7648V18.353H1.41187V12.7059H2.82374V8.47077H4.23515V7.05889L7.0589 4.23514L9.88218 2.82374L12 2.1178L14.1178 2.82374L16.9411 4.23514L19.7648 7.05889V8.47077H21.1762V12.7059H22.5881Z" fill="#FECDD3"/>
<path d="M18.353 12.7059L19.0589 15.5292L18.353 18.353L16.9411 19.7648L12 20.4705L7.05891 19.7648L5.64703 18.353L4.94109 15.5294L5.64703 12.7059L7.05891 9.88219L9.88219 7.05891L12 6.35297L14.1178 7.05891L16.9411 9.88219L18.353 12.7059Z" fill="#F43F5E"/>
<path d="M19.7648 19.7648H21.1762V21.1762H19.7648V19.7648Z" fill="#FDA4AF"/>
<path d="M19.7648 21.1762L19.7648 22.5881H4.23513V21.1762H7.05888L12 20.4705L16.9411 21.1762L19.7648 21.1762Z" fill="#FDA4AF"/>
<path d="M2.82373 19.7648H4.23514L4.23513 21.1762L2.82373 21.1762V19.7648Z" fill="#FDA4AF"/>
<path d="M16.9411 9.88222H18.3529V12.706H16.9411V9.88222Z" fill="#9F1239"/>
<path d="M4.23512 12.706H5.647V18.353H4.23512V12.706Z" fill="#9F1239"/>
<path d="M5.647 9.88222H7.05887V12.706H5.647L5.647 9.88222Z" fill="#9F1239"/>
<path d="M7.05887 19.7649H16.9411L16.9411 21.1762H7.05888L7.05887 19.7649Z" fill="#9F1239"/>
<path d="M18.3529 12.706H19.7648V18.353H18.3529V12.706Z" fill="#9F1239"/>
<path d="M15.5292 8.47082H16.9411V9.88222L15.5292 9.88222V8.47082Z" fill="#9F1239"/>
<path d="M14.1178 7.05894H15.5292V8.47082L14.1178 8.47082V7.05894Z" fill="#9F1239"/>
<path d="M9.88216 5.64707H14.1178V7.05894H9.88216V5.64707Z" fill="#9F1239"/>
<path d="M8.47075 7.05894H9.88216L9.88216 8.47082H8.47075V7.05894Z" fill="#9F1239"/>
<path d="M7.05887 8.47082L8.47075 8.47082L8.47075 9.88222L7.05887 9.88222V8.47082Z" fill="#9F1239"/>
<path d="M5.647 18.353L7.05887 18.353V19.7649L5.647 19.7649L5.647 18.353Z" fill="#9F1239"/>
<path d="M16.9411 18.353L18.3529 18.353V19.7649L16.9411 19.7649V18.353Z" fill="#9F1239"/>
<path d="M16.9411 4.23515H18.3529V5.64702H16.9411V4.23515Z" fill="#FFF1F2"/>
<path d="M14.1178 2.82374H16.9411V4.23515L14.1178 4.23515V2.82374Z" fill="#FFF1F2"/>
<path d="M9.88216 1.41187H14.1178V2.82374L9.88216 2.82374V1.41187Z" fill="#FFF1F2"/>
<path d="M5.647 4.23515H7.05887V5.64702H5.647V4.23515Z" fill="#FFF1F2"/>
<path d="M7.05887 2.82374L9.88216 2.82374V4.23515L7.05887 4.23515V2.82374Z" fill="#FFF1F2"/>
<path d="M18.3529 5.64702L19.7648 5.64702V7.0589H18.3529V5.64702Z" fill="#FFF1F2"/>
<path d="M4.23512 5.64702L5.647 5.64702L5.647 7.0589H4.23512V5.64702Z" fill="#FFF1F2"/>
<path d="M14.1178 14.1178V11.2941H12.7059V9.88218H11.294V11.2941H9.88216V14.1178H8.47075V16.9411H9.88216V18.353H14.1178V16.9411H15.5292V14.1178H14.1178ZM12.7059 16.9411H11.294V12.7059H12.7059V16.9411Z" fill="#FFF1F2"/>
</g>
<defs>
<clipPath id="clip0_19336_23961">
<rect width="24" height="24" fill="white"/>
</clipPath>
</defs>
</svg>
