<svg width="24" height="24" viewBox="0 0 24 24" fill="none" xmlns="http://www.w3.org/2000/svg">
<path d="M24 7.0589V16.9411H22.5881V18.353H21.1763V19.7648H19.7648V21.1762H16.9411V22.5881H7.05891V21.1762H4.23516V19.7648H2.82375V18.353H1.41188V16.9411H0V7.0589H1.41188V5.64702H2.82375V4.23515H4.23516V2.82374H7.05891V1.41187H16.9411V2.82374H19.7648V4.23515H21.1763V5.64702H22.5881V7.0589H24Z" fill="#292524"/>
<path d="M21.8822 16.2353L19.7649 18.3531L16.9411 19.765L16.2352 20.4707H7.76485L7.05891 19.765L4.23516 18.3531L2.11782 16.2353L3.52946 14.8237L4.23516 15.5294L7.05891 16.9413L7.76485 17.6472H16.2352L16.9411 16.9413L19.7649 15.5294L20.4706 14.8237L21.8822 16.2353Z" fill="#FACC15"/>
<path d="M21.1763 7.05899L19.7648 5.64712L16.9411 4.23524L16.2352 3.52954H7.76485L4.23516 7.05899L3.52946 6.35306L2.11782 7.76493V12.0648L2.82375 12.706L2.11782 13.412L4.23516 15.5294L7.05891 16.9413L7.76485 17.6472H16.2352L16.9411 16.9413L19.7649 15.5294L21.8822 13.412L21.1763 12.706L21.8822 12.0001V7.86571L21.1763 7.05899ZM17.6469 10.5884L14.8233 13.412H9.17672L6.35321 10.5884V9.17657L9.17672 6.35306H14.8233L17.647 9.17657L17.6469 10.5884Z" fill="#FB7185"/>
<path d="M8.47079 8.47095H15.5292V11.2942H8.47079V8.47095Z" fill="#A16207"/>
<path d="M19.7648 8.47085V9.88226H18.353L17.647 9.17655L18.353 8.47085H19.7648Z" fill="#ADCDE3"/>
<path d="M4.23516 11.2941H5.64703V12.706H4.23516V11.2941Z" fill="#ADCDE3"/>
<path d="M4.94109 4.94119L5.64703 5.64712V7.059H4.23515L3.52945 6.35306L4.94109 4.94119Z" fill="#ADCDE3"/>
<path d="M18.353 5.64712V7.059H16.9411V5.64712L17.647 4.94119L18.353 5.64712Z" fill="#FACC15"/>
<path d="M12.7059 4.23527V5.64714L12 6.35308L11.2941 5.64714V4.23527L12.0001 3.45217L12.7059 4.23527Z" fill="#854D0E"/>
<path d="M9.88218 14.1179V15.5293H8.47078V14.1179L9.17648 13.2886L9.88218 14.1179Z" fill="#854D0E"/>
<path d="M15.5292 14.1179V15.5293H14.1178V14.1179L14.8235 13.2886L15.5292 14.1179Z" fill="#854D0E"/>
<path d="M4.23515 8.47087V9.88228H2.82374L2.11781 9.17658L2.82374 8.47087H4.23515Z" fill="#FACC15"/>
<path d="M8.47078 5.64707H15.5292V7.05895H8.47078V5.64707Z" fill="#BE123C"/>
<path d="M15.5292 7.05895L16.9411 7.059L16.9411 8.47084H15.5292L15.5292 7.05895Z" fill="#BE123C"/>
<path d="M7.0589 7.05896L8.47078 7.05895L8.47078 8.47084H7.0589V7.05896Z" fill="#BE123C"/>
<path d="M2.82375 16.9412H1.41188V14.1179L2.11781 13.412L3.52945 14.8236L2.82375 15.5293V16.9412Z" fill="#A16207"/>
<path d="M16.9411 18.3531H19.7649V19.7649H16.9411V18.3531Z" fill="#A16207"/>
<path d="M7.05891 19.7649L16.9411 19.7649L16.9411 21.1763H7.05891V19.7649Z" fill="#A16207"/>
<path d="M22.5881 14.1179V16.9412H21.1763V15.5293L20.4706 14.8236L21.8822 13.412L22.5881 14.1179Z" fill="#A16207"/>
<path d="M2.82375 16.9412L4.23516 16.9412V18.3531H2.82375L2.82375 16.9412Z" fill="#A16207"/>
<path d="M4.23516 18.3531L7.05891 18.3531L7.05891 19.7649L4.23516 19.7649L4.23516 18.3531Z" fill="#A16207"/>
<path d="M19.7649 16.9412L21.1763 16.9412L21.1763 18.3531L19.7649 18.3531L19.7649 16.9412Z" fill="#A16207"/>
<path d="M21.8822 12.0001L22.5881 12.706L22.5881 14.1179L21.1763 14.1179V12.706L21.8822 12.0001Z" fill="#881337"/>
<path d="M19.7649 14.1179L21.1763 14.1179L21.1763 15.5293L19.7649 15.5293V14.1179Z" fill="#881337"/>
<path d="M2.82375 14.1179H4.23516V15.5293L2.82375 15.5293L2.82375 14.1179Z" fill="#881337"/>
<path d="M4.23516 15.5293L7.05891 15.5293V16.9412L4.23516 16.9412V15.5293Z" fill="#881337"/>
<path d="M7.05891 16.9412L16.9411 16.9411L16.9411 18.3531H7.05891V16.9412Z" fill="#881337"/>
<path d="M16.9411 15.5293L19.7649 15.5293V16.9412L16.9411 16.9411L16.9411 15.5293Z" fill="#881337"/>
<path d="M2.82376 12.706L2.82375 14.1179L1.41188 14.1179L1.41188 12.706L2.11782 12.0647L2.82376 12.706Z" fill="#881337"/>
<path d="M21.1763 7.05901H22.5881L22.5881 12.706H21.1763L21.1763 7.05901Z" fill="#FDA4AF"/>
<path d="M19.7648 5.64712H21.1763L21.1763 7.05901L19.7648 7.05899V5.64712Z" fill="#FDA4AF"/>
<path d="M16.9411 4.23523L16.9411 5.64712L19.7648 5.64712L19.7648 4.23523H16.9411Z" fill="#FDA4AF"/>
<path d="M16.9411 8.47084L18.353 8.47085L18.353 11.2942H16.9411L16.9411 8.47084Z" fill="#FDA4AF"/>
<path d="M15.5292 11.2942L16.9411 11.2942L16.9411 12.706H15.5292V11.2942Z" fill="#FDA4AF"/>
<path d="M7.0589 2.82385H16.9411L16.9411 4.23523L7.0589 4.23526V2.82385Z" fill="#FDA4AF"/>
<path d="M8.47078 12.7061L15.5292 12.706L15.5292 14.1179H8.47078L8.47078 12.7061Z" fill="#FDA4AF"/>
<path d="M7.0589 11.2942H8.47078L8.47078 12.7061L7.0589 12.706V11.2942Z" fill="#FDA4AF"/>
<path d="M5.64703 8.4709L7.0589 8.47084V11.2942L5.64703 11.2941L5.64703 8.4709Z" fill="#FDA4AF"/>
<path d="M4.23515 4.23523L7.0589 4.23526L7.0589 5.6471H4.23515V4.23523Z" fill="#FDA4AF"/>
<path d="M2.82375 5.64712L4.23515 5.6471L4.23515 7.059L2.82375 7.05899V5.64712Z" fill="#FDA4AF"/>
<path d="M1.41188 7.05901L2.82375 7.05899L2.82376 12.706H1.41188L1.41188 7.05901Z" fill="#FDA4AF"/>
<path d="M8.47078 9.88228H15.5292L15.5292 11.2942H8.47078L8.47078 9.88228Z" fill="#854D0E"/>
</svg>
