<svg width="24" height="24" viewBox="0 0 24 24" fill="none" xmlns="http://www.w3.org/2000/svg">
<g clip-path="url(#clip0_19336_23956)">
<path d="M24 1.41188V7.05891H22.5881V9.88219H21.1763V11.2941H19.7648V12.7059H18.353V14.1178H16.9411V15.5292H12.7059V16.9411H14.1178V18.353H12.7059V19.7648H9.88219V21.1763H4.23516V22.5881H2.82375V24H0V21.1763H1.41188V19.7648H2.82375V14.1178H4.23516V11.2941H5.64703V9.88219H7.05891V8.47078H8.47078V7.05891H9.88219V8.47078H11.2941V4.23516H12.7059V2.82375H14.1178V1.41188H16.9411V0H22.5881V1.41188H24Z" fill="#292524"/>
<path d="M22.5881 4.23514V7.05889H21.1762V8.47077L19.7648 9.88217V11.294H18.353L16.9411 12.7059V14.1178H12.7059V15.5292H11.2941V16.9411L9.17625 19.0589H4.94109L4.23515 16.9411V14.1178H5.64703V11.294H7.0589L8.47078 9.88217V8.47077H9.88218V9.88217H11.2941V8.47077H12.7059V4.23514H14.1178L16.9411 2.82374L17.647 2.1178H21.8822L22.5881 4.23514Z" fill="#E7E5E4"/>
<path d="M22.5881 2.82374V4.23515H21.1762L19.7648 2.82374H16.9411V1.41187H21.1762L22.5881 2.82374Z" fill="#F5F5F4"/>
<path d="M16.9411 2.82374V4.23515H15.5292L14.8237 3.52968L15.5292 2.82374L16.9411 2.82374Z" fill="#F5F5F4"/>
<path d="M9.88219 18.353V19.7648H5.64704L4.23516 18.353V16.9411H5.64704L7.05891 18.353H9.88219Z" fill="#A8A29E"/>
<path d="M9.88218 16.9411H12.7059V18.353L9.88219 18.353L9.88218 16.9411Z" fill="#A8A29E"/>
<path d="M16.9411 5.64702H18.353V7.0589H16.9411V5.64702Z" fill="#78716C"/>
<path d="M14.1178 2.82374H15.5292L15.5292 5.64697H14.1178V2.82374Z" fill="#78716C"/>
<path d="M11.2941 11.2941H12.7059V12.7059H11.2941V11.2941Z" fill="#78716C"/>
<path d="M12.7059 9.88218H14.1178V11.2941L12.7059 11.2941V9.88218Z" fill="#78716C"/>
<path d="M7.0589 9.88218H8.47077V12.7059H7.0589V9.88218Z" fill="#78716C"/>
<path d="M5.64704 16.9411L7.0589 16.9411L7.05891 18.353L5.64702 18.353L5.64704 16.9411Z" fill="#78716C"/>
<path d="M8.47077 14.1178H9.88218V15.5292H8.47077V14.1178Z" fill="#78716C"/>
<path d="M9.88218 12.7059L11.2941 12.7059V14.1178L9.88218 14.1178L9.88218 12.7059Z" fill="#78716C"/>
<path d="M7.0589 15.5292L8.47077 15.5292L8.47077 16.9411H7.0589V15.5292Z" fill="#78716C"/>
<path d="M4.23516 18.353L5.64702 18.353L5.64704 19.7648L4.23515 19.7648L4.23516 18.353Z" fill="#78716C"/>
<path d="M15.5292 7.0589H16.9411V8.47077H15.5292V7.0589Z" fill="#78716C"/>
<path d="M14.1178 8.47077L15.5292 8.47077V9.88218L14.1178 9.88218V8.47077Z" fill="#78716C"/>
<path d="M15.5292 11.2941H18.353V12.7059H15.5292V11.2941Z" fill="#78716C"/>
<path d="M18.353 8.47077H21.1762V9.88218H18.353V8.47077Z" fill="#78716C"/>
<path d="M18.353 4.23515H19.7648V5.64702L18.353 5.64702V4.23515Z" fill="#78716C"/>
<path d="M19.7648 2.82374L21.1762 2.82374L21.1762 4.23515L19.7648 4.23515L19.7648 2.82374Z" fill="#78716C"/>
<path d="M21.1762 1.41187H22.5881L22.5881 2.82374L21.1762 2.82374L21.1762 1.41187Z" fill="#78716C"/>
<path d="M2.82376 19.7648L4.23515 19.7648L4.23516 21.1762H2.82376V19.7648Z" fill="#FACC15"/>
<path d="M1.41188 21.1762L2.82376 21.1762L2.82376 22.5881H1.41188V21.1762Z" fill="#FED7AA"/>
</g>
<defs>
<clipPath id="clip0_19336_23956">
<rect width="24" height="24" fill="white"/>
</clipPath>
</defs>
</svg>
