<svg width="24" height="24" viewBox="0 0 24 24" fill="none" xmlns="http://www.w3.org/2000/svg">
<g clip-path="url(#clip0_19336_23959)">
<path d="M19.7649 16.9411V19.7648H18.353V21.1763H16.9411V22.5881H14.1178V24H12.7059L12 23.2941L11.2941 24H9.8822V22.5881H7.05892V21.1763H5.64704V19.7648H4.23517V16.9411H5.64704V15.5292H8.47079V16.9411H9.8822V12.7059H8.47079V11.2941H7.05892V9.88219H5.64704V2.82375H7.05892V1.41188H9.8822V0H14.1178V1.41188H16.9411V2.82375H18.353V9.88219H16.9411V11.2941H15.5292V12.7059H14.1178V16.9411H15.5292V15.5292H18.353V16.9411H19.7649Z" fill="#292524"/>
<path d="M16.9411 4.23514V9.88217H15.5292L14.1178 11.294L12 12L9.88216 11.294L8.47076 9.88217H7.05888V4.23514L12 2.1178L16.9411 4.23514Z" fill="#F43F5E"/>
<path d="M8.47075 18.353H9.88216V19.7648L8.47075 20.4703L7.05888 19.7648H5.647V18.353L7.05888 17.647L8.47075 18.353Z" fill="#9BB167"/>
<path d="M12 14.8238L12.7059 15.5292V24H11.294V15.5292L12 14.8238Z" fill="#9BB167"/>
<path d="M18.3529 18.353V19.7648H16.9411L15.5292 20.4703L14.1178 19.7648V18.353H15.5292L16.9411 17.647L18.3529 18.353Z" fill="#9BB167"/>
<path d="M14.1178 1.41187V2.82374L12.7059 4.23515L12 4.94108L11.2941 4.23515L9.88218 2.82374V1.41187H14.1178Z" fill="#BE123C"/>
<path d="M9.88218 11.2941H14.1178V12.7059H9.88218V11.2941Z" fill="#BE123C"/>
<path d="M8.47077 9.88218H9.88218L9.88218 11.2941L8.47077 11.2941V9.88218Z" fill="#BE123C"/>
<path d="M11.294 2.82373L11.2941 4.23515L9.88216 4.23514L9.17646 3.52943L9.88218 2.82374L11.294 2.82373Z" fill="#881337"/>
<path d="M11.2941 4.23515H12.7059L12.7059 7.05891H11.294L11.2941 4.23515Z" fill="#881337"/>
<path d="M12.7059 7.05891L14.1178 7.0589V9.88219H12.7059V7.05891Z" fill="#881337"/>
<path d="M14.1178 4.23516L12.7059 4.23515L12.7059 2.82375L14.1178 2.82374L14.8235 3.52945L14.1178 4.23516Z" fill="#881337"/>
<path d="M14.1178 9.88219L15.5292 9.88218V11.2941L14.1178 11.2941L14.1178 9.88219Z" fill="#881337"/>
<path d="M14.1178 2.82374L16.9411 2.82375V4.23516H14.1178L14.1178 2.82374Z" fill="#FDA4AF"/>
<path d="M7.05888 2.82373L9.88218 2.82374L9.88216 4.23514H7.05888V2.82373Z" fill="#FDA4AF"/>
<path d="M14.1178 19.7648H16.9411V21.1762H14.1178V19.7648Z" fill="#627739"/>
<path d="M11.294 14.1178H12.7059V15.5292H11.294V14.1178Z" fill="#627739"/>
<path d="M7.05889 19.7648H9.88217V21.1762H7.05889V19.7648Z" fill="#627739"/>
<path d="M15.5292 16.9411H18.3529V18.353H15.5292V16.9411Z" fill="#D4DEB8"/>
<path d="M5.647 16.9411H8.47075V18.353H5.647V16.9411Z" fill="#D4DEB8"/>
</g>
<defs>
<clipPath id="clip0_19336_23959">
<rect width="24" height="24" fill="white"/>
</clipPath>
</defs>
</svg>
