<svg width="24" height="24" viewBox="0 0 24 24" fill="none" xmlns="http://www.w3.org/2000/svg">
<g clip-path="url(#clip0_19336_22874)">
<path d="M22.4348 10.4348V8.86959H20.8696V5.73914H22.4348V3.13045H20.8696V1.5652H18.2609V3.13041H15.1305V1.5652H13.5652V0H10.4348V1.5652H8.86959V3.13041H5.73914V1.5652H3.13045V3.13041H1.5652V5.73909H3.13041V8.86955H1.5652V10.4348H0V13.5652H1.5652V15.1304H3.13041V18.2609H1.5652V20.8695H3.13041V22.4348H5.73909V20.8695H8.86955V22.4348H10.4348V24H13.5652V22.4348H15.1304V20.8696H18.2609V22.4348H20.8695V20.8696H22.4348V18.2609H20.8695V15.1305H22.4348V13.5652H24V10.4348H22.4348ZM14.6087 14.6087V16.1739H9.39131V14.6087H7.82611V9.39131H9.39131V7.82611H14.6087V9.39131H16.1739V14.6087H14.6087Z" fill="#C084FC"/>
<path d="M19.8261 18.2608H18.2609V19.826H19.8261V18.2608Z" fill="white"/>
<path d="M3.13046 3.13044H1.56521V4.69564H4.69566V1.56519H3.13046V3.13044Z" fill="white"/>
<path d="M10.4348 1.5652H8.86955V3.13045H12V0H10.4348V1.5652Z" fill="white"/>
<path d="M19.8261 4.69564V1.56519H18.2609V3.13044H16.6957V4.69564H19.8261Z" fill="white"/>
<path d="M3.13045 12V8.86954H1.5652V10.4348H0V12H3.13045Z" fill="white"/>
<path d="M3.13046 18.2609H1.56521V19.8261H4.69566V16.6956H3.13046V18.2609Z" fill="white"/>
<path d="M8.86955 19.3044V20.8696H12V19.3044H8.86955Z" fill="white"/>
<path d="M19.3043 8.86954V12H20.8695V8.86954H19.3043Z" fill="white"/>
<path d="M14.6087 6.26083H9.39132V7.82604H14.6087V6.26083Z" fill="#292524"/>
<path d="M14.6087 16.1739H9.39132V17.7391H14.6087V16.1739Z" fill="#292524"/>
<path d="M17.7391 9.3913H16.1739V14.6087H17.7391V9.3913Z" fill="#292524"/>
<path d="M7.82606 9.3913H6.26086V14.6087H7.82606V9.3913Z" fill="#292524"/>
<path d="M9.39132 7.82604L7.82611 7.82611L7.82606 9.3913L9.39131 9.39131L9.39132 7.82604Z" fill="#292524"/>
<path d="M16.1739 7.82611L14.6087 7.82604L14.6087 9.39131L16.1739 9.3913L16.1739 7.82611Z" fill="#292524"/>
<path d="M9.39131 14.6087L7.82606 14.6087L7.82611 16.1739L9.39132 16.1739L9.39131 14.6087Z" fill="#292524"/>
<path d="M16.1739 14.6087L14.6087 14.6087L14.6087 16.1739L16.1739 16.1739L16.1739 14.6087Z" fill="#292524"/>
<path d="M10.4348 4.69564V1.56519H8.86955V3.13044H5.73914V4.69564H10.4348Z" fill="#292524"/>
<path d="M3.13041 3.13046H1.56521V5.73915H3.13041V3.13046Z" fill="#292524"/>
<path d="M5.73914 1.56519H3.13045L3.13041 3.13046L5.73914 3.13044L5.73914 1.56519Z" fill="#292524"/>
<path d="M20.8695 1.56519H18.2609V3.13039H20.8695V1.56519Z" fill="#292524"/>
<path d="M22.4348 3.13046L20.8695 3.13039L20.8695 5.73915H22.4348V3.13046Z" fill="#292524"/>
<path d="M18.2609 4.69564L18.2609 3.13039L15.1305 3.13044V1.56519H13.5652V4.69564H18.2609Z" fill="#292524"/>
<path d="M13.5652 0H10.4348L10.4348 1.56519H13.5652L13.5652 0Z" fill="#292524"/>
<path d="M4.69566 18.2608V13.5652H1.56521V15.1304H3.13046V18.2608H4.69566Z" fill="#292524"/>
<path d="M3.13046 18.2608L1.56521 18.2608V20.8695H3.13041L3.13046 18.2608Z" fill="#292524"/>
<path d="M5.73914 20.8695L3.13041 20.8695L3.13045 22.4347H5.73914V20.8695Z" fill="#292524"/>
<path d="M13.5652 19.3044V22.4348H15.1305V20.8696H18.2609V19.3044H13.5652Z" fill="#292524"/>
<path d="M20.8695 15.1304H22.4348V13.5652H19.3043V18.2608H20.8695V15.1304Z" fill="#292524"/>
<path d="M22.4348 18.2608L20.8695 18.2608L20.8695 20.8695H22.4348V18.2608Z" fill="#292524"/>
<path d="M20.8695 20.8695L18.2609 20.8696L18.2609 22.4347H20.8695L20.8695 20.8695Z" fill="#292524"/>
<path d="M5.73914 19.3044L5.73914 20.8695L8.86955 20.8696V22.4348H10.4348V19.3044H5.73914Z" fill="#292524"/>
<path d="M13.5652 22.4348H10.4348L10.4348 24H13.5652L13.5652 22.4348Z" fill="#292524"/>
<path d="M22.4348 10.4348V8.86957H20.8695L20.8695 5.73915L19.3043 5.73917V10.4348H22.4348V13.5652L24 13.5652V10.4348H22.4348Z" fill="#292524"/>
<path d="M1.5652 10.4348H4.69566V5.73917L3.13041 5.73915L3.13045 8.86957H1.5652V10.4348H0V13.5652L1.56521 13.5652L1.5652 10.4348Z" fill="#292524"/>
</g>
<defs>
<clipPath id="clip0_19336_22874">
<rect width="24" height="24" fill="white"/>
</clipPath>
</defs>
</svg>
