<svg width="24" height="24" viewBox="0 0 24 24" fill="none" xmlns="http://www.w3.org/2000/svg">
<g clip-path="url(#clip0_19336_23953)">
<path d="M22.4348 4.69566V3.13045H20.8695V1.5652H19.3043V0H9.39131V1.5652H7.82611V3.13045H6.26086V4.69566H4.69566V16.1739H3.13045V17.7391H1.5652V19.3043H0V22.4348H1.5652V24H4.69566V22.4348H6.26086V20.8695H7.82611V19.3043H19.3043V17.7391H20.8695V16.1739H22.4348V14.6087H24V4.69566H22.4348Z" fill="#F472B6"/>
<path d="M20.8695 6.2609H19.3043V4.6957H17.7391V3.13049H10.9565V4.6957H9.39131V6.2609H7.82611V13.0435H9.39131V14.6087H10.9565V16.1739H17.7391V14.6087H19.3043V13.0435H20.8695V6.2609Z" fill="#8FB8D8"/>
<path d="M10.9565 3.13049V4.6957H9.39131V6.2609H7.82611V7.82615H9.39131H10.9565V6.2609H12.5217V4.6957V3.13049H10.9565Z" fill="white"/>
<path d="M9.39131 0V1.5652H7.82611V3.13045H6.26086V4.69566H4.69566V6.26086H7.82611V4.69566H9.39131V3.13045H10.9565V0H9.39131Z" fill="white"/>
<path d="M4.69566 14.6087V16.1739H3.13045V17.7391H1.5652V19.3043H0V20.8695H3.13045V19.3043H4.69566V17.7391H6.26086V16.1739V14.6087H4.69566Z" fill="white"/>
<path d="M1.5652 19.3043H0V22.4348H1.5652V19.3043Z" fill="#292524"/>
<path d="M6.26086 14.6087L6.26086 4.69566H4.69566L4.69566 14.6087V16.1739H6.26086V14.6087Z" fill="#292524"/>
<path d="M4.69566 16.1739H3.13045V17.7391H4.69566V16.1739Z" fill="#292524"/>
<path d="M3.13045 17.7391H1.5652V19.3043H3.13045V17.7391Z" fill="#292524"/>
<path d="M4.69566 22.4348L1.5652 22.4348L1.5652 24H4.69566V22.4348Z" fill="#292524"/>
<path d="M7.82611 17.7391V19.3043H19.3043V17.7391H7.82611Z" fill="#292524"/>
<path d="M7.82611 19.3043L6.26086 19.3043V20.8695H7.82606L7.82611 19.3043Z" fill="#292524"/>
<path d="M6.26086 20.8695L4.69566 20.8695L4.69566 22.4348L6.26086 22.4348L6.26086 20.8695Z" fill="#292524"/>
<path d="M24 4.69565H22.4348V14.6087H24V4.69565Z" fill="#292524"/>
<path d="M19.3043 0H9.39131V1.5652H19.3043V0Z" fill="#292524"/>
<path d="M7.82611 3.13045H6.26086V4.69566H7.82611V3.13045Z" fill="#292524"/>
<path d="M9.39131 1.5652H7.82611V3.13045H9.39131V1.5652Z" fill="#292524"/>
<path d="M20.8695 1.5652L19.3043 1.5652V3.13041H20.8695V1.5652Z" fill="#292524"/>
<path d="M22.4348 3.13045L20.8695 3.13041V4.69565L22.4348 4.69565L22.4348 3.13045Z" fill="#292524"/>
<path d="M22.4348 14.6087L20.8695 14.6087V16.1739H22.4348L22.4348 14.6087Z" fill="#292524"/>
<path d="M20.8695 16.1739H19.3043L19.3043 17.7391L20.8695 17.7391V16.1739Z" fill="#292524"/>
<path d="M9.39131 6.26086L7.82611 6.26086L7.82611 13.0435H9.39131V6.26086Z" fill="#292524"/>
<path d="M17.7391 3.13045L10.9565 3.13045V4.69565H17.7391V3.13045Z" fill="#292524"/>
<path d="M17.7391 14.6087H10.9565V16.1739H17.7391V14.6087Z" fill="#292524"/>
<path d="M20.8695 6.26086H19.3043V13.0435H20.8695V6.26086Z" fill="#292524"/>
<path d="M10.9565 4.69565L9.39131 4.69566L9.39131 6.26086L10.9565 6.26086V4.69565Z" fill="#292524"/>
<path d="M10.9565 13.0435L9.39131 13.0435L9.39131 14.6087L10.9565 14.6087V13.0435Z" fill="#292524"/>
<path d="M19.3043 4.69565L17.7391 4.69565L17.7391 6.26086L19.3043 6.26086L19.3043 4.69565Z" fill="#292524"/>
<path d="M19.3043 13.0435L17.7391 13.0435L17.7391 14.6087L19.3043 14.6087L19.3043 13.0435Z" fill="#292524"/>
</g>
<defs>
<clipPath id="clip0_19336_23953">
<rect width="24" height="24" fill="white"/>
</clipPath>
</defs>
</svg>
