<svg width="24" height="24" viewBox="0 0 24 24" fill="none" xmlns="http://www.w3.org/2000/svg">
<path d="M22.4337 4.95693V3.39182H20.8685V1.82666H14.608V3.39182H13.0428V4.95693H10.956V3.39182H9.39089V1.82666H3.13031V3.39182H1.5652V4.95693H4.57764e-05V14.3477H1.5652V15.9129H3.13031V17.478H4.69547V19.0431H7.82573V20.6083H10.956V22.1734H13.0428V20.6083H16.1731V19.0431H19.3034V17.478H20.8685V15.9129H22.4337V14.3484H24V4.95754L22.4337 4.95693Z" fill="#FB7185"/>
<path d="M14.608 1.82666V3.39182H13.0428V4.95693H10.956V6.52208H14.608V4.95693H16.1731V1.82666H14.608Z" fill="white"/>
<path d="M3.13031 3.39182H1.5652V4.95693H4.57764e-05V6.52208H3.13031V4.95693H4.69547V1.82666H3.13031V3.39182Z" fill="white"/>
<path d="M3.13032 3.39163H1.56516V4.95679H3.13032V3.39163Z" fill="#292524"/>
<path d="M22.4336 3.39163H20.8685V4.95679H22.4336V3.39163Z" fill="#292524"/>
<path d="M14.6079 3.39163H13.0428V4.95679H14.6079V3.39163Z" fill="#292524"/>
<path d="M3.13032 14.3476H1.56516V15.9127H3.13032V14.3476Z" fill="#292524"/>
<path d="M22.4336 14.3476H20.8685V15.9127H22.4336V14.3476Z" fill="#292524"/>
<path d="M10.956 19.043H7.82569V20.6082H10.956V19.043Z" fill="#292524"/>
<path d="M16.173 19.043H13.0428V20.6082H16.173V19.043Z" fill="#292524"/>
<path d="M10.9559 3.39163H9.39079V4.95679H10.9559V3.39163Z" fill="#292524"/>
<path d="M13.0428 4.95679H10.9559L10.956 6.52197H13.0428L13.0428 4.95679Z" fill="#292524"/>
<path d="M19.3034 17.4778H16.1731L16.173 19.043L19.3034 19.043V17.4778Z" fill="#292524"/>
<path d="M7.82569 17.4778H4.69542V19.043L7.82569 19.043L7.82569 17.4778Z" fill="#292524"/>
<path d="M4.69542 15.9128L3.13032 15.9127L3.13027 17.4779L4.69542 17.4778L4.69542 15.9128Z" fill="#292524"/>
<path d="M20.8685 15.9127L19.3034 15.9128L19.3034 17.4778L20.8685 17.4779L20.8685 15.9127Z" fill="#292524"/>
<path d="M13.0428 20.6082H10.956L10.956 22.1734H13.0428L13.0428 20.6082Z" fill="#292524"/>
<path d="M9.3908 1.82654H3.13027L3.13032 3.39163H9.39079L9.3908 1.82654Z" fill="#292524"/>
<path d="M20.8685 1.82654H14.6079L14.6079 3.39163H20.8685L20.8685 1.82654Z" fill="#292524"/>
<path d="M1.56516 4.95679L0 4.95682V14.3476L1.56516 14.3476V4.95679Z" fill="#292524"/>
<path d="M23.9988 4.95682L22.4336 4.95679V14.3476L23.9988 14.3476V4.95682Z" fill="#292524"/>
</svg>
