<svg width="24" height="24" viewBox="0 0 24 24" fill="none" xmlns="http://www.w3.org/2000/svg">
<g clip-path="url(#clip0_19336_22875)">
<path d="M22.4348 10.9565V9.39131H20.8695V1.5652V1.04348V0H16.1739V1.04348V1.5652V3.13045H14.6087V1.5652H13.0435V0H10.9565V1.5652H9.39131V3.13045H7.82611V4.69566H6.26086V6.26086H4.69566V7.82611H3.13045V9.39131H1.5652V10.9565H0V12.5217H1.5652V14.087V24H8.86955V14.6087H15.1305V24H22.4348V14.087V12.5217H24V10.9565H22.4348Z" fill="#F5F5F4"/>
<path d="M16.1739 0V6.26086H17.7391V7.82611H19.3043V9.39131H20.8695V6.26086V3.13045V0H16.1739Z" fill="#FACC15"/>
<path d="M22.4348 10.9565V9.39131H20.8695V7.82611H19.3043V6.26086H17.7391V4.69566H16.1739V3.13045H14.6087V1.5652H13.0435V0H10.9565V1.5652H9.39131V3.13045H7.82611V4.69566H6.26086V6.26086H4.69566V7.82611H3.13045V9.39131H1.5652V10.9565H0V12.5217H4.69566V10.9565H6.26086V9.39131H7.82611V7.82611H9.39131V6.26086H10.9565V4.69566H13.0435V6.26086H14.6087V7.82611H16.1739V9.39131H17.7391V10.9565H19.3043V12.5217H24V10.9565H22.4348Z" fill="#FB923C"/>
<path d="M13.0435 0H10.9565V1.5652H13.0435V0Z" fill="#292524"/>
<path d="M9.39131 3.13046H7.82611V4.69567H9.39131V3.13046Z" fill="#292524"/>
<path d="M7.82611 4.69567L6.26086 4.69565V6.26085H7.82606L7.82611 4.69567Z" fill="#292524"/>
<path d="M6.26086 6.26085L4.69565 6.26083V7.82604H6.26086L6.26086 6.26085Z" fill="#292524"/>
<path d="M4.69565 7.82604L3.13045 7.82611V9.39131H4.69565L4.69565 7.82604Z" fill="#292524"/>
<path d="M3.13045 9.39131L1.5652 9.3913V10.9565H3.13041L3.13045 9.39131Z" fill="#292524"/>
<path d="M1.5652 10.9565L0 10.9565V12.5217H1.5652L1.5652 10.9565Z" fill="#292524"/>
<path d="M16.1739 4.69566V6.26086H17.7391V1.5652H19.3043V9.39131H20.8695V0H16.1739V3.13045H14.6087V4.69566H16.1739Z" fill="#292524"/>
<path d="M14.6087 1.56519L13.0435 1.5652L13.0435 3.13039L14.6087 3.13045L14.6087 1.56519Z" fill="#292524"/>
<path d="M10.9565 1.5652L9.39131 1.56519L9.39131 3.13046L10.9565 3.13039V1.5652Z" fill="#292524"/>
<path d="M20.8695 22.4348H16.6957V13.0435H7.30434V22.4348H3.13045V12.5218L1.5652 12.5217L1.5652 24H8.86955V14.6087H15.1305V24H22.4348V12.5218H20.8695V22.4348Z" fill="#292524"/>
<path d="M22.4348 9.3913L20.8695 9.39131L20.8695 10.9565H22.4348V9.3913Z" fill="#292524"/>
<path d="M24 10.9565L22.4348 10.9565L22.4348 12.5218L24 12.5217V10.9565Z" fill="#292524"/>
</g>
<defs>
<clipPath id="clip0_19336_22875">
<rect width="24" height="24" fill="white"/>
</clipPath>
</defs>
</svg>
