<svg width="24" height="24" viewBox="0 0 24 24" fill="none" xmlns="http://www.w3.org/2000/svg">
<path d="M19.7648 21.1763V24H4.23516V21.1763H5.64704V19.7648H8.47079V18.353H7.05891V16.9411H5.64704V11.2941H7.05891V8.47078H8.47079V5.64703H7.05891V4.23516H8.47079V2.82375L7.76485 2.11781L8.47079 1.41188H9.88219V0H14.1178V1.41188H15.5292L16.2352 2.11781L15.5292 2.82375V4.23516H16.9411V5.64703H15.5292V8.47078H16.9411V11.2941H18.353V16.9411H16.9411V18.353H15.5292V19.7648H18.353V21.1763H19.7648Z" fill="#292524"/>
<path d="M16.2352 12V14.8237H7.76484V12L8.47078 11.2941L9.88218 8.47077L11.2941 7.0589H12.7059L14.1178 8.47077L15.5292 11.2941L16.2352 12Z" fill="#6898C9"/>
<path d="M15.5292 21.1763L14.8237 20.4703H9.17624L8.47077 21.1763H5.64702V22.5882H18.353V21.1763H15.5292Z" fill="#FACC15"/>
<path d="M13.4119 4.94108L14.1178 4.23514V2.82374L13.4119 2.1178H10.5881L9.88218 2.82374V4.23514L10.5881 4.94108H13.4119Z" fill="#FACC15"/>
<path d="M16.3018 14.1178V16.2352L15.5292 16.9411L14.1178 18.353H12.7059L12 17.647L11.2941 18.353H9.88218L8.47078 16.9411L7.76484 16.2352V14.1178H9.88218V12.7059H11.2941V11.2941H12.7059V12.7059H14.1178V14.1178H16.3018Z" fill="#9F1239"/>
<path d="M14.1178 14.1178L14.1178 16.9411H9.88218L9.88218 14.1178L11.2941 14.1178L11.2941 12.7059H12.7059L12.7059 14.1178L14.1178 14.1178Z" fill="#FB7185"/>
<path d="M11.2941 18.353H12.7059L12.7059 16.941L12 16.2351L11.2941 16.941L11.2941 18.353Z" fill="#FACC15"/>
<path d="M11.2941 15.5292H12.7059V16.941H11.2941V15.5292Z" fill="#FB923C"/>
<path d="M8.47078 19.7648H15.5292V21.1762H8.47078V19.7648Z" fill="#FB923C"/>
<path d="M8.47078 4.23511H15.5292V5.64698H8.47078V4.23511Z" fill="#FB923C"/>
<path d="M9.88218 1.41187H14.1178V2.82374H9.88218V1.41187Z" fill="#FEF08A"/>
<path d="M8.47078 16.9411L9.88218 16.9411L9.88218 18.353L8.47078 18.353L8.47078 16.9411Z" fill="#CEE0EF"/>
<path d="M7.0589 11.2941H8.47077L8.47078 16.9411L7.0589 16.9412V11.2941Z" fill="#CEE0EF"/>
<path d="M8.47078 8.47083H9.88219V11.2941L8.47077 11.2941L8.47078 8.47083Z" fill="#CEE0EF"/>
<path d="M12.7059 7.05896H14.1178V8.47084H12.7059V7.05896Z" fill="#CEE0EF"/>
<path d="M9.88218 7.05896H11.2941V8.47084L9.88219 8.47083L9.88218 7.05896Z" fill="#CEE0EF"/>
<path d="M14.1178 8.47084L15.5292 8.47083V11.2941H14.1178L14.1178 8.47084Z" fill="#CEE0EF"/>
<path d="M14.1178 16.9411L15.5292 16.9411L15.5292 18.353L14.1178 18.353L14.1178 16.9411Z" fill="#CEE0EF"/>
<path d="M15.5292 11.2941L16.9411 11.2941V16.9412L15.5292 16.9411L15.5292 11.2941Z" fill="#CEE0EF"/>
<path d="M2.82376 4.23511H4.23517V18.3529H2.82376V4.23511Z" fill="#A8A29E"/>
<path d="M19.7648 4.23511H21.1762V18.3529H19.7648V4.23511Z" fill="#A8A29E"/>
<path d="M15.5292 1.41187H18.353V2.82374H15.5292V1.41187Z" fill="#A8A29E"/>
<path d="M18.353 18.353L19.7648 18.3529L19.7648 19.7648H18.353V18.353Z" fill="#A8A29E"/>
<path d="M18.353 2.82374L19.7648 2.82373L19.7648 4.23511L18.353 4.23514L18.353 2.82374Z" fill="#A8A29E"/>
<path d="M4.23517 18.3529L5.64704 18.353V19.7648H4.23516L4.23517 18.3529Z" fill="#A8A29E"/>
<path d="M5.64702 1.41187H8.47077V2.82374H5.64702V1.41187Z" fill="#A8A29E"/>
<path d="M4.23516 2.82373L5.64702 2.82374L5.64704 4.23514L4.23517 4.23511L4.23516 2.82373Z" fill="#A8A29E"/>
</svg>
