<svg width="24" height="24" viewBox="0 0 24 24" fill="none" xmlns="http://www.w3.org/2000/svg">
<g clip-path="url(#clip0_19336_23957)">
<path d="M24 1.41188V9.88219H22.5881V14.1178H21.1763V15.5292H19.7648V16.9411H18.353V18.353H15.5292V19.7648H12.7059V21.1763H4.23516V22.5881H2.82375V24H0V21.1763H1.41188V19.7648H2.82375V11.2941H4.23516V8.47078H5.64703V5.64703H7.05891V4.23516H8.47078V2.82375H9.88219V1.41188H14.1178V0H22.5881V1.41188H24Z" fill="#292524"/>
<path d="M22.5881 2.82374V7.05889L21.8822 7.76483L22.5881 8.47077V9.88217H21.1762V11.294L20.4708 12L21.1762 12.7059V14.1178H19.7648V15.5292H18.353V16.9411H15.5292V18.353H12.7059L12 19.0589H4.94109L4.23515 18.353V11.294H5.64703V8.47077H7.0589V5.64702H8.47078V4.23514H9.88218V2.82374H11.2941L12 3.52967L12.7059 2.82374H14.1178L14.8237 2.1178H21.8822L22.5881 2.82374Z" fill="#9BB167"/>
<path d="M16.9411 5.64703H15.5292V2.82375L14.8237 2.02828L15.5292 1.41187H16.9411L17.647 2.11781L16.9411 2.82375V5.64703Z" fill="#3F4B29"/>
<path d="M16.9411 5.64703L18.353 5.64703V7.0589H16.9411V5.64703Z" fill="#3F4B29"/>
<path d="M14.1178 11.2941H21.1762V12.7059H14.1178V11.2941Z" fill="#3F4B29"/>
<path d="M18.353 7.0589H22.5881V8.47078H18.353V7.0589Z" fill="#3F4B29"/>
<path d="M21.1762 4.23516H19.7648V2.82375L21.1762 1.41187H22.5881V2.82375H21.1762V4.23516Z" fill="#3F4B29"/>
<path d="M18.353 4.23516L19.7648 4.23516V5.64703L18.353 5.64703V4.23516Z" fill="#3F4B29"/>
<path d="M11.2941 2.82375H12.7059V9.88219H11.2941V2.82375Z" fill="#3F4B29"/>
<path d="M15.5292 7.0589H16.9411V8.47078H15.5292V7.0589Z" fill="#3F4B29"/>
<path d="M12.7059 9.88219L14.1178 9.88219V11.2941L12.7059 11.2941V9.88219Z" fill="#3F4B29"/>
<path d="M9.88219 12.7059H11.2941V14.1178H9.88219V12.7059Z" fill="#3F4B29"/>
<path d="M5.64703 16.9411H7.05891V18.353L5.64703 19.7648H4.23516V18.353H5.64703V16.9411Z" fill="#3F4B29"/>
<path d="M14.1178 8.47078L15.5292 8.47078V9.88219L14.1178 9.88219V8.47078Z" fill="#3F4B29"/>
<path d="M8.47078 14.1178L9.88219 14.1178V15.5292H8.47078V14.1178Z" fill="#3F4B29"/>
<path d="M9.88219 15.5292L15.5292 15.5292V16.9411H9.88219V15.5292Z" fill="#3F4B29"/>
<path d="M7.0589 15.5292L8.47078 15.5292L8.47078 16.9411H7.05891L7.0589 15.5292Z" fill="#3F4B29"/>
<path d="M7.0589 8.47078H8.47078L8.47078 14.1178L7.0589 14.1178V8.47078Z" fill="#3F4B29"/>
<path d="M11.2941 11.2941L12.7059 11.2941V12.7059L11.2941 12.7059V11.2941Z" fill="#3F4B29"/>
<path d="M2.82377 19.7648L4.23516 19.7648L4.23518 21.1762H2.82377V19.7648Z" fill="#7F974B"/>
<path d="M1.4119 21.1762L2.82377 21.1762L2.82377 22.5881H1.4119V21.1762Z" fill="#7F974B"/>
<path d="M5.64703 18.353L12.706 18.3529V19.7648L5.64703 19.7648V18.353Z" fill="#7F974B"/>
<path d="M16.9411 1.41187H21.1762V2.82375H16.9411V1.41187Z" fill="#E9EED9"/>
<path d="M14.1178 1.41187L15.5292 1.41187V2.82375L14.1178 2.82374V1.41187Z" fill="#E9EED9"/>
</g>
<defs>
<clipPath id="clip0_19336_23957">
<rect width="24" height="24" fill="white"/>
</clipPath>
</defs>
</svg>
