<svg width="24" height="24" viewBox="0 0 24 24" fill="none" xmlns="http://www.w3.org/2000/svg">
<path d="M20.3478 9.39124H3.65216V23.9999H20.3478V9.39124Z" fill="#FACC15"/>
<path d="M20.3478 9.39126H3.65216V23.9999H6.26085V11.9999H20.3478V9.39126Z" fill="white"/>
<path d="M15.1304 0H8.86949V1.5652H15.1304V0Z" fill="#292524"/>
<path d="M18.2608 9.3913V3.13044H16.6956V9.3913H7.30433V3.13044H5.73913V9.3913L3.65216 9.39126V23.9999L20.3478 24V9.39126L18.2608 9.3913ZM18.7826 22.4348H5.21736V10.9565H18.7826L18.7826 22.4348Z" fill="#292524"/>
<path d="M8.86949 1.5652L7.30431 1.56519L7.30433 3.13044L8.86951 3.13039L8.86949 1.5652Z" fill="#292524"/>
<path d="M16.6957 1.56519L15.1304 1.5652L15.1305 3.13039L16.6956 3.13044L16.6957 1.56519Z" fill="#292524"/>
<path d="M11.4783 19.8261H12.5217V17.2174H13.5652V14.087H10.4348V17.2174H11.4783V19.8261Z" fill="#292524"/>
</svg>
