<svg width="24" height="24" viewBox="0 0 24 24" fill="none" xmlns="http://www.w3.org/2000/svg">
<g clip-path="url(#clip0_19336_23950)">
<path d="M24 16.9411V22.5881H22.5881V24H1.41188V22.5881H0V16.9411H1.41188V15.5292H7.05891V14.1178H4.23516V12.7059H2.82375V1.41188H4.23516V0H19.7648V1.41188H21.1763V12.7059H19.7648V14.1178H16.9411V15.5292H22.5881V16.9411H24Z" fill="#292524"/>
<path d="M22.5881 18.353V21.1762L21.8822 21.8822H2.1178L1.41187 21.1762V18.353L2.17152 17.531H21.7085L22.5881 18.353Z" fill="#A78BFA"/>
<path d="M16.2351 4.94108V9.17623L15.5292 9.88217H8.47077L7.76484 9.17623V4.94108H16.2351Z" fill="#7F974B"/>
<path d="M19.7648 2.82375V11.2941L19.0589 12H17.647L16.9411 11.2941V9.88219H18.3529V4.23516H16.9411V2.82375L17.647 2.11782H19.0589L19.7648 2.82375Z" fill="#E7E5E4"/>
<path d="M6.35296 2.1178L7.0589 2.82374V4.23514H5.64702V9.88217H7.0589V11.294L6.35296 12H4.94108L4.23515 11.294V2.82374L4.94108 2.1178H6.35296Z" fill="#E7E5E4"/>
<path d="M8.47077 14.1178H15.5292V15.5292H8.47077V14.1178Z" fill="#A8A29E"/>
<path d="M4.23515 11.2941H19.7648V12.7059H4.23515V11.2941Z" fill="#A8A29E"/>
<path d="M4.23515 1.41187H19.7648V2.82374H4.23515V1.41187Z" fill="#F5F5F4"/>
<path d="M16.9411 4.23519V9.88223H15.5292V8.47082L14.8238 7.76488L15.5292 7.05894V5.64707H8.47079V9.88223H7.05891V4.23519H16.9411Z" fill="#D4DEB8"/>
<path d="M5.64704 17.6471H7.05891V19.7649H5.64704V17.6471Z" fill="#D4DEB8"/>
<path d="M2.82376 17.6471H4.23517V19.7649H2.82376V17.6471Z" fill="#D4DEB8"/>
<path d="M11.2941 7.0589H12.7059V8.47077H11.2941V7.0589Z" fill="#4C1D95"/>
<path d="M14.1178 7.05884L15.5292 7.05894V8.47082L14.1178 8.47072V7.05884Z" fill="#4C1D95"/>
<path d="M22.5881 21.1762V22.5881H1.41187V21.1762H14.1178L14.8237 20.4703H17.647L18.353 21.1762H22.5881Z" fill="#8B5CF6"/>
<path d="M21.1762 17.647V19.7648H18.353V21.1762H14.1178V19.7648H11.2941V17.647H21.1762Z" fill="#384D70"/>
<path d="M1.41187 16.9411H22.5881V18.353H1.41187V16.9411Z" fill="#C4B5FD"/>
</g>
<defs>
<clipPath id="clip0_19336_23950">
<rect width="24" height="24" fill="white"/>
</clipPath>
</defs>
</svg>
