<svg width="24" height="24" viewBox="0 0 24 24" fill="none" xmlns="http://www.w3.org/2000/svg">
<g clip-path="url(#clip0_19336_23951)">
<path d="M0 3.39136V6.52176H1.5652V8.08701H3.13045V9.65222H4.69566V11.2174H6.26086V20.6087H9.91303V19.0435H11.4783V17.4783H13.0435V15.9131H14.6087V14.3479H16.1739V12.7827H17.7391V11.2174H19.3043V9.65222H20.8695V8.08701H22.4348V6.52176H24V3.39136H0Z" fill="#CEE0EF"/>
<path d="M24 3.39136H20.8696V6.52176H17.7391V8.08701H13.0435V9.65222H9.91304V11.2174H6.26086V20.6087H9.91304V19.0435H11.4783V17.4783H13.0435V15.9131H14.6087V14.3479H16.1739V12.7827H17.7391V11.2174H19.3043V9.65222H20.8696V8.08701H22.4348V6.52176H24V3.39136Z" fill="#8FB8D8"/>
<path d="M0 3.39136V6.52176H1.5652V4.95656H22.4348V6.52176H24V3.39136H0Z" fill="#292524"/>
<path d="M22.4348 6.52176L20.8695 6.52176V8.08697H22.4348L22.4348 6.52176Z" fill="#292524"/>
<path d="M20.8695 8.08697L19.3043 8.08701V9.65221H20.8695V8.08697Z" fill="#292524"/>
<path d="M19.3043 9.65221H17.7391V11.2174H19.3043L19.3043 9.65221Z" fill="#292524"/>
<path d="M17.7391 11.2174L16.1739 11.2174V12.7826H17.7391L17.7391 11.2174Z" fill="#292524"/>
<path d="M16.1739 12.7826L14.6087 12.7827V14.3479H16.1739V12.7826Z" fill="#292524"/>
<path d="M14.6087 14.3479H13.0435V15.9131H14.6087L14.6087 14.3479Z" fill="#292524"/>
<path d="M13.0435 15.9131H11.4783V17.4783H13.0435V15.9131Z" fill="#292524"/>
<path d="M11.4783 17.4783L9.91303 17.4783V19.0435H11.4782L11.4783 17.4783Z" fill="#292524"/>
<path d="M3.13041 6.52176L1.5652 6.52176L1.5652 8.08697H3.13041V6.52176Z" fill="#292524"/>
<path d="M4.69566 8.08701L3.13041 8.08697L3.13045 9.65221H4.69566V8.08701Z" fill="#292524"/>
<path d="M6.26086 9.65221H4.69566L4.69566 11.2174H6.26086V9.65221Z" fill="#292524"/>
<path d="M7.82611 12.7827H9.91303V11.2174L6.26086 11.2174L6.26086 20.6087H9.91303L9.91303 19.0435L7.82611 19.0435V12.7827Z" fill="#292524"/>
<path d="M13.0435 9.65221H9.91303L9.91303 11.2174L13.0435 11.2174V9.65221Z" fill="#292524"/>
<path d="M16.1739 8.08701H13.0435L13.0435 9.65221H16.1739V8.08701Z" fill="#292524"/>
</g>
<defs>
<clipPath id="clip0_19336_23951">
<rect width="24" height="24" fill="white"/>
</clipPath>
</defs>
</svg>
