<svg width="24" height="24" viewBox="0 0 24 24" fill="none" xmlns="http://www.w3.org/2000/svg">
<path d="M22.5881 5.64703V8.47078H21.1762V9.88219H19.7648V14.1178H18.353V22.5881H16.9411V24H7.0589V22.5881H5.64702V14.1178H4.23515V9.88219H2.82374V8.47078H1.41187V5.64703H2.82374V4.23516H4.23515V1.41188H5.64702V0H7.0589V1.41188H8.47077V2.82375H9.88218V1.41188H11.2941V0H12.7059V1.41188H14.1178V2.82375H15.5292V1.41188H16.9411V0H18.353V1.41188H19.7648V4.23516H21.1762V5.64703H22.5881Z" fill="#292524"/>
<path d="M18.353 11.2941V14.1178H16.9411L16.2352 14.8238L16.9411 16.9411V21.1763L12 21.8822L7.05892 21.1763V16.9411L7.76485 14.8238L7.05892 14.1178H5.64704V11.2941H18.353Z" fill="#CA8A04"/>
<path d="M7.05892 7.05889H8.47079V8.47077L6.35298 9.17623L4.23517 8.47077H2.82376V5.64702H4.23517V4.23514H5.64704V2.82374L6.35298 2.1178L7.76485 3.52967L7.05892 4.23514V7.05889Z" fill="#9BB167"/>
<path d="M21.1763 5.64702V8.47077H19.7649L17.647 9.17623L15.5292 8.47077V7.05889H16.9411V4.23514L16.2352 3.52967L17.647 2.1178L18.353 2.82374V4.23514H19.7649V5.64702H21.1763Z" fill="#9BB167"/>
<path d="M15.5292 7.05889L14.1178 7.05894V8.47081L12 9.17628L9.8822 8.47081V7.05894L8.47079 7.05889V4.23519H9.8822L12 2.82378L14.1178 4.23519H15.5292L15.5292 7.05889Z" fill="#9BB167"/>
<path d="M16.9411 14.1178V15.5292L12 16.2351L7.05892 15.5292V14.1178H16.9411Z" fill="#854D0E"/>
<path d="M7.05892 15.5292H16.9411V16.9411H7.05892V15.5292Z" fill="#A16207"/>
<path d="M7.05892 21.1761H16.9411V22.588H7.05892V21.1761Z" fill="#A16207"/>
<path d="M16.9411 7.05891H18.353V8.47079L16.9411 9.88219H15.5292V8.47079H16.9411V7.05891Z" fill="#3F4B29"/>
<path d="M18.353 5.64702H19.7649V7.0589L18.353 7.05891L18.353 5.64702Z" fill="#3F4B29"/>
<path d="M7.05892 8.47079H8.47079V9.88219H7.05892L5.64704 8.47079V7.05891H7.05892V8.47079Z" fill="#3F4B29"/>
<path d="M4.23517 5.64702H5.64704L5.64704 7.05891L4.23517 7.0589V5.64702Z" fill="#3F4B29"/>
<path d="M12.7059 8.47074L13.4109 9.17621L12.7059 9.88215H11.2941L10.5891 9.17621L11.2941 8.47074V4.23512L10.5881 3.52965L11.2941 2.82371L12 2.11777L12.7059 2.82371L13.4109 3.52965L12.7059 4.23512V8.47074Z" fill="#3F4B29"/>
<path d="M16.9411 8.47079L19.7649 8.47078V9.88218L16.9411 9.88219V8.47079Z" fill="#7F974B"/>
<path d="M12.7059 8.47074L14.1178 8.47078V9.88218L12.7059 9.88215V8.47074Z" fill="#7F974B"/>
<path d="M4.23517 8.47073L7.05892 8.47079V9.88219L4.23517 9.88213V8.47073Z" fill="#7F974B"/>
<path d="M9.8822 8.47078L11.2941 8.47074V9.88215L9.8822 9.88218V8.47078Z" fill="#7F974B"/>
<path d="M16.9411 1.41189H18.353V2.82376H16.9411V1.41189Z" fill="#D4DEB8"/>
<path d="M15.5292 2.82378L16.9411 2.82376L16.9411 4.23519H15.5292V2.82378Z" fill="#D4DEB8"/>
<path d="M12.7059 2.82371L14.1178 2.82378V4.23519L12.7059 4.23512V2.82371Z" fill="#D4DEB8"/>
<path d="M11.2941 1.41189H12.706L12.7059 2.82371H11.2941L11.2941 1.41189Z" fill="#D4DEB8"/>
<path d="M9.8822 2.82378L11.2941 2.82371V4.23512L9.8822 4.23519V2.82378Z" fill="#D4DEB8"/>
<path d="M7.05892 2.82378H8.4708V4.23519H7.05892V2.82378Z" fill="#D4DEB8"/>
<path d="M5.64704 1.41187H7.05892L7.05892 2.82378L5.64704 2.82374V1.41187Z" fill="#D4DEB8"/>
</svg>
