<svg width="24" height="24" viewBox="0 0 24 24" fill="none" xmlns="http://www.w3.org/2000/svg">
<path d="M22.5881 12.7059V11.294H18.353V9.88214H15.5292V8.47073H12.7059V7.05886H9.88219V5.64698H8.47078V4.23511H7.05891V5.64698H5.64703V7.05886H2.82375V5.64698H1.41188V7.05886H0V18.3529H1.41188V19.7648H22.5881V18.3529H24V12.7059H22.5881Z" fill="#292524"/>
<path d="M19.7649 12.7059H22.5881V15.5292H19.7649V12.7059Z" fill="#FAFAF9"/>
<path d="M1.41188 16.9411H22.5881V18.3529H1.41188V16.9411Z" fill="#9333EA"/>
<path d="M15.5292 11.2941V9.88225H12.7059V8.47085L9.88219 8.47061V7.05897H8.47078V5.64709H7.0589V8.47085H2.82375V7.05897H1.41187V15.5293H18.353V11.2941H15.5292Z" fill="#FB7185"/>
<path d="M15.5292 11.2941L16.9411 11.2941V12.706H15.5292L15.5292 11.2941Z" fill="#6B21A8"/>
<path d="M12.7059 9.88225L14.1178 9.88225V11.2941H12.7059L12.7059 9.88225Z" fill="#6B21A8"/>
<path d="M9.88219 8.47061L11.2941 8.47075V9.88216H9.88219L9.88219 8.47061Z" fill="#6B21A8"/>
<path d="M21.1763 12.706V14.1179H19.7648V15.5293H22.5881V12.706H21.1763Z" fill="#E7E5E4"/>
<path d="M16.9411 11.2942V12.7061H14.1178V14.1179H12.7059V15.5293H18.353V11.2942H16.9411Z" fill="#F43F5E"/>
<path d="M18.353 16.9412H22.5881V18.3531H18.353V16.9412Z" fill="#6B21A8"/>
</svg>
