<svg width="24" height="24" viewBox="0 0 24 24" fill="none" xmlns="http://www.w3.org/2000/svg">
<g clip-path="url(#clip0_19336_23944)">
<path d="M21.1763 12.7059V14.1178H19.7648V15.5292H7.05891V14.1178H5.64703V12.7059H7.05891V9.88219H8.47078V8.47078H9.88219V7.05891H11.2941V4.23516H4.23516V24H0V4.23516H1.41188V2.82375H2.82375V1.41188H4.23516V0H11.2941V1.41188H12.7059V2.82375H14.1178V4.23516H15.5292V7.05891H16.9411V8.47078H18.353V9.88219H19.7648V12.7059H21.1763Z" fill="#292524"/>
<path d="M15.5292 19.7648H16.9411V22.5881H15.5292V24H11.2941V22.5881H9.88218V19.7648H11.2941V18.3529H12.7059V16.9411H14.1178V18.3529H15.5292V19.7648Z" fill="#292524"/>
<path d="M2.82375 2.82375H4.23516V4.23516H2.82375V2.82375Z" fill="#E7E5E4"/>
<path d="M1.41188 22.5881L2.11782 23.294L2.82376 22.5881L2.82375 4.23516L1.41188 4.23513V22.5881Z" fill="#E7E5E4"/>
<path d="M12.706 4.23513V7.05888L13.4117 7.76482L14.1178 7.05888V4.23513H12.706Z" fill="#E7E5E4"/>
<path d="M11.2941 2.82375H12.7059L12.706 4.23513L11.2941 4.23516V2.82375Z" fill="#E7E5E4"/>
<path d="M4.23517 1.41187H11.2941L11.2941 2.82375H4.23516L4.23517 1.41187Z" fill="#E7E5E4"/>
<path d="M13.4116 19.0589L11.2941 21.1763V22.5881H15.5292V21.1763L13.4116 19.0589Z" fill="#5581BB"/>
<path d="M18.353 12.7059L13.4119 12L8.47078 12.7059H7.05891V14.1178H19.7648V12.7059H18.353Z" fill="#7F974B"/>
<path d="M13.4119 9.32114L9.88219 9.88219L9.17649 10.5881L9.88219 11.2941L13.4119 12L16.9411 11.2941L17.647 10.5881L16.9411 9.88219L13.4119 9.32114Z" fill="#9BB167"/>
<path d="M21.1763 18.3529H22.5881V19.7648H21.1763V21.1762H19.7649V19.7648H18.353V18.3529H19.7649V16.9411H21.1763V18.3529Z" fill="#5581BB"/>
<path d="M24 2.82375V4.23516H22.5881V5.64703H21.1763V7.05891H19.7649V5.64703H18.353V4.23516H16.9411V2.82375H18.353V1.41187H19.7649V0H21.1763V1.41187H22.5881V2.82375H24Z" fill="#5581BB"/>
<path d="M17.647 10.5881L16.9411 11.294H9.8822L9.1765 10.5881L8.4708 11.294V12.7059H18.353V11.294L17.647 10.5881Z" fill="#3F4B29"/>
<path d="M14.1178 7.05894V8.47081L13.4117 9.17651L12.706 8.47081V7.05894H14.1178Z" fill="#57534E"/>
<path d="M9.88221 8.4708H16.9411V9.88221H9.88221V8.4708Z" fill="#D4DEB8"/>
<path d="M8.47079 9.88218L9.88221 9.88221L9.8822 11.294H8.4708L8.47079 9.88218Z" fill="#D4DEB8"/>
<path d="M16.9411 9.88221L18.353 9.88218L18.353 11.294H16.9411L16.9411 9.88221Z" fill="#D4DEB8"/>
<path d="M1.41188 22.5881H2.82376V24H1.41188V22.5881Z" fill="#A8A29E"/>
<path d="M11.2941 19.7649H12.7059V21.1763H11.2941V19.7649Z" fill="#ADCDE3"/>
<path d="M12.7059 18.353H14.1178V19.7649L12.7059 19.7649L12.7059 18.353Z" fill="#ADCDE3"/>
<path d="M14.1178 19.7649L15.5292 19.7649V21.1763H14.1178L14.1178 19.7649Z" fill="#ADCDE3"/>
<path d="M19.7649 18.3529H21.1763V19.7648H19.7649V18.3529Z" fill="#ADCDE3"/>
<path d="M22.5881 2.82375V4.23516L21.1762 4.2352L21.1763 5.64703H19.7649L19.7648 4.2352L18.353 4.23516V2.82375L19.7648 2.82379L19.7649 1.41187H21.1763L21.1762 2.82379L22.5881 2.82375Z" fill="#ADCDE3"/>
<path d="M19.7648 2.82379H21.1762V4.2352H19.7648V2.82379Z" fill="#5581BB"/>
<path d="M18.353 22.5881H19.7649V23.9999H18.353V22.5881Z" fill="#5581BB"/>
<path d="M5.64703 21.1762H7.05891V22.588H5.64703V21.1762Z" fill="#5581BB"/>
<path d="M7.0589 19.7648H8.47078V21.1762L7.05891 21.1762L7.0589 19.7648Z" fill="#5581BB"/>
</g>
<defs>
<clipPath id="clip0_19336_23944">
<rect width="24" height="24" fill="white"/>
</clipPath>
</defs>
</svg>
