<svg width="24" height="24" viewBox="0 0 24 24" fill="none" xmlns="http://www.w3.org/2000/svg">
<g clip-path="url(#clip0_19336_24094)">
<path d="M24 4.23516V1.41188H22.5881V0H18.353V1.41188H16.9411V0H11.2941V1.41188H9.88219V2.82375H11.2941V4.23516H12.7059V5.64703H8.47078V7.05891H5.64703V8.47078H4.23516V9.88219H2.82375V11.2941H1.41188V14.1178H0V24H1.41188L12 22.312L22.5881 24H24V14.1178H22.5881V11.2941H21.1763V9.88219H19.7648V8.47078H22.5881V7.05891H24V5.64703H22.5881V4.23516H24ZM18.3525 5.64703H16.9416V4.23516H18.3525V5.64703Z" fill="#292524"/>
<path d="M22.5881 14.1178V18.3529L21.8822 19.0589L21.1763 18.3529L12 17.647L2.82376 18.3529L2.11782 19.0589L1.41188 18.3529V14.1178H2.82376V11.294H5.64704V12.7059H7.05891V14.1178H9.88219V12.7059H11.2941V11.294H9.88219V12.7059H7.05891V11.294H5.64704V9.88216H8.47079V8.47075H11.2941V9.88216H18.353V11.294H16.9411V12.7059H14.1178V11.294H12.7059V12.7059H14.1178V14.1178H16.9411V12.7059H18.353V11.294H21.1763V14.1178H22.5881Z" fill="#FACC15"/>
<path d="M21.1763 21.1762L12 20.4705L2.82376 21.1762L1.41188 22.5881V24H22.5881V22.5881L21.1763 21.1762Z" fill="#D6D3D1"/>
<path d="M16.2352 2.1178L16.9411 2.82374V4.23514H15.5292V2.82374L16.2352 2.1178Z" fill="#8FB8D8"/>
<path d="M14.1178 4.23516L15.5292 4.23514L15.5292 5.64703H14.1178V4.23516Z" fill="#8FB8D8"/>
<path d="M12.706 5.64705L14.1178 5.64703L14.1178 7.05892H16.9411V8.4708L11.2941 8.47075L11.2941 7.05892H12.706V5.64705Z" fill="#8FB8D8"/>
<path d="M22.5881 4.23514H21.1763V2.82374L21.8822 2.1178L22.5881 2.82374V4.23514Z" fill="#8FB8D8"/>
<path d="M21.1763 4.23514L21.1763 5.64703H22.5881V7.05891H18.353V5.64703H19.7649V4.23516L21.1763 4.23514Z" fill="#8FB8D8"/>
<path d="M1.41188 18.353H2.82376V19.7649H1.41188V18.353Z" fill="#CA8A04"/>
<path d="M21.1763 16.9411V18.353L2.82376 18.353L2.82376 16.9411H9.8822L12 16.2352L14.1178 16.9411H21.1763Z" fill="#CA8A04"/>
<path d="M21.1763 18.353L22.5881 18.353V19.7649H21.1763L21.1763 18.353Z" fill="#CA8A04"/>
<path d="M18.353 1.41189H22.5881V2.82376H18.353V1.41189Z" fill="#E3EDF6"/>
<path d="M11.2941 1.41187H16.9411V2.82374H11.2941V1.41187Z" fill="#E3EDF6"/>
<path d="M9.88219 15.5292H14.1178L14.1178 16.9411H9.8822L9.88219 15.5292Z" fill="#BE123C"/>
<path d="M5.64703 8.47078H8.47078V9.88218H5.64703V8.47078Z" fill="#FEF9C3"/>
<path d="M16.9411 8.47078H18.353V9.88218H16.9411V8.47078Z" fill="#FEF9C3"/>
<path d="M4.23516 9.88215L5.64703 9.88218L5.64704 11.294H4.23516V9.88215Z" fill="#FEF9C3"/>
<path d="M8.47079 7.05889H9.88219V8.47076L8.47078 8.47078L8.47079 7.05889Z" fill="#FEF9C3"/>
<path d="M18.353 9.88218L19.7649 9.88215V11.294H18.353L18.353 9.88218Z" fill="#FEF9C3"/>
<path d="M21.1763 21.1761H22.5881V22.588H21.1763V21.1761Z" fill="#F5F5F4"/>
<path d="M2.82376 19.7649H21.1763V21.1761L2.82376 21.1762L2.82376 19.7649Z" fill="#F5F5F4"/>
<path d="M1.41188 21.1761L2.82376 21.1762L2.82376 22.588H1.41188V21.1761Z" fill="#F5F5F4"/>
</g>
<defs>
<clipPath id="clip0_19336_24094">
<rect width="24" height="24" fill="white"/>
</clipPath>
</defs>
</svg>
