<svg width="24" height="24" viewBox="0 0 24 24" fill="none" xmlns="http://www.w3.org/2000/svg">
<g clip-path="url(#clip0_19336_23960)">
<path d="M24 5.647V18.3529H22.5881V21.1762H21.1763V22.5881H19.7648V24H1.41188V22.5881H0V19.7648H1.41188V18.3529H2.82375V15.5292H1.41188V9.88215H2.82375V7.05887H4.23516V5.647H7.05891V4.23512H12.7059V5.647H15.5292V7.05887H16.9411V9.88215H18.353V5.647H19.7648V4.23512H21.1763L21.8822 3.52942L22.5881 4.23512V5.647H24Z" fill="#292524"/>
<path d="M22.5881 7.05884V15.5292L21.1763 18.3529L18.8216 22.0755H14.8235L15.5292 19.7648L16.9411 18.3529L18.353 15.5292V9.88212H19.7649V7.05884L21.1763 6.35291L22.5881 7.05884Z" fill="#FACC15"/>
<path d="M4.23518 19.7648L4.94111 21.8821L1.4119 21.1762V19.7648H2.82377L3.52971 18.9665L4.23518 19.7648Z" fill="#FACC15"/>
<path d="M16.9411 9.88212V15.5292H15.5292V16.941L12.706 18.3529L9.88221 19.0588L7.05893 18.3529L4.23518 16.941V15.5292H2.82377V9.88212H4.23518V8.47072L7.05893 7.05884L9.88221 6.35291L12.706 7.05884L15.5292 8.47072V9.88212H16.9411Z" fill="#78716C"/>
<path d="M19.7649 5.64703H22.5881V7.0589H19.7649V5.64703Z" fill="#FEF08A"/>
<path d="M4.23515 11.294H5.64703V15.5292H4.23515V11.294Z" fill="#44403C"/>
<path d="M11.2941 12.7059H12.7059V16.941H11.2941V12.7059Z" fill="#44403C"/>
<path d="M5.64703 9.88214H7.0589V11.294H5.64703V9.88214Z" fill="#44403C"/>
<path d="M12.7059 9.88214H14.1178V11.294H12.7059V9.88214Z" fill="#44403C"/>
<path d="M7.0589 12.7059H8.47078V14.1178H7.0589V12.7059Z" fill="#44403C"/>
<path d="M5.64703 16.941V15.5292L7.0589 15.5292V16.941L11.2941 16.941V18.3529L9.88219 19.0589L7.0589 18.3529L5.64703 16.941Z" fill="#44403C"/>
<path d="M14.1178 11.294H15.5292V15.5292H14.1178V11.294Z" fill="#44403C"/>
<path d="M8.47078 11.294H11.2941L11.2941 12.7059H8.47078L8.47078 11.294Z" fill="#44403C"/>
<path d="M8.47078 14.1178H9.88219V15.5292H8.47078L8.47078 14.1178Z" fill="#44403C"/>
<path d="M7.0589 8.47073H12.7059V9.88214H7.0589V8.47073Z" fill="#44403C"/>
<path d="M12.7059 16.941L15.5292 16.9411V18.353H12.7059V16.941Z" fill="#44403C"/>
<path d="M7.0589 18.3529L12.7059 18.353V19.7648H7.0589V18.3529Z" fill="#44403C"/>
<path d="M21.1762 1.41187H22.5881V4.23516H21.1762V1.41187Z" fill="#44403C"/>
<path d="M19.7648 0H21.1762V1.41187L19.7648 1.41188V0Z" fill="#44403C"/>
<path d="M16.9411 1.41187H18.353V2.82375H16.9411V1.41187Z" fill="#44403C"/>
<path d="M4.23515 16.9411L7.0589 16.941V18.3529L4.23515 18.353V16.9411Z" fill="#44403C"/>
<path d="M18.353 2.82375L19.7648 2.82375V4.23516H18.353V2.82375Z" fill="#44403C"/>
<path d="M15.5292 0H16.9411V1.41187L15.5292 1.41188V0Z" fill="#44403C"/>
<path d="M12.7059 7.05896H15.5292V8.47084L12.7059 8.47073V7.05896Z" fill="#A8A29E"/>
<path d="M7.0589 5.64709H12.7059V7.05896H7.0589V5.64709Z" fill="#A8A29E"/>
<path d="M4.23515 7.05896H7.0589V8.47073L4.23515 8.47084V7.05896Z" fill="#A8A29E"/>
<path d="M21.1763 15.5293H22.5881V18.353H21.1763V15.5293Z" fill="#F97316"/>
<path d="M21.1763 18.353V21.1763H19.7649V22.5882H1.4119V21.1763H4.23518V19.7649L7.0589 19.7648L7.05893 21.1763H12.706L12.7059 19.7648L15.5292 19.7649V21.1763H16.9411V19.7649H19.7649V18.353H21.1763Z" fill="#F97316"/>
<path d="M16.9411 15.5293H18.353V18.353H16.9411V15.5293Z" fill="#F97316"/>
<path d="M15.5292 18.353L16.9411 18.353V19.7649H15.5292L15.5292 18.353Z" fill="#F97316"/>
<path d="M2.82377 18.353L4.23515 18.353L4.23518 19.7649H2.82377V18.353Z" fill="#F97316"/>
</g>
<defs>
<clipPath id="clip0_19336_23960">
<rect width="24" height="24" fill="white"/>
</clipPath>
</defs>
</svg>
