<svg width="24" height="24" viewBox="0 0 24 24" fill="none" xmlns="http://www.w3.org/2000/svg">
<path d="M22.5881 4.23516V5.64703H21.1763V7.05891H19.7649V8.47078H18.353V9.88219H16.9411V8.47078H15.5292V7.05891H14.1178V5.64703H12.7059V4.23516H14.1178V2.82375H15.5292V1.41188H16.9411V0H18.353V1.41188H19.7649V2.82375H21.1763V4.23516H22.5881Z" fill="#292524"/>
<path d="M18.353 15.5292H19.7649V18.353H18.353V19.7648H19.7649V22.5881H18.353V24H2.82376V22.5881H1.41188V19.7648H2.82376V18.353H5.64704V15.5292H7.05892V14.1178H5.64704V12.7059H7.05892V11.2941H5.64704V9.88219H4.23517V7.0589H5.64704V5.64703H9.8822V7.0589H12.7059V8.47078H14.1178V9.88219H15.5292V11.2941H16.9411V12.7059H15.5292V14.1178H18.353V15.5292Z" fill="#292524"/>
<path d="M7.05892 9.88213L6.06855 7.76479L9.8822 8.47073H11.2941L12 9.17643L11.2941 9.88213H7.05892Z" fill="#A8A29E"/>
<path d="M16.9411 15.5292L17.647 17.647H7.76486L8.4708 15.5292H16.9411Z" fill="#A8A29E"/>
<path d="M16.9411 19.7648L17.647 21.8821H3.52947L4.23517 19.7648H16.9411Z" fill="#A8A29E"/>
<path d="M14.8235 11.9999L14.1178 12.7059L9.03428 13.4118L9.8822 11.294H14.1178L14.8235 11.9999Z" fill="#A8A29E"/>
<path d="M19.7649 4.23515V2.82374H18.353V1.41187H16.9411V2.82374H15.5292V4.23515H14.1178V5.64702H15.5292V7.0589H16.9411V8.47077H18.353V7.0589H19.7649V5.64702H21.1763V4.23515H19.7649Z" fill="#9BB167"/>
<path d="M19.7648 4.23514V5.64701H18.353V7.05889H16.9411V5.64701H15.5292V4.23514H16.9411V2.82373H18.353V4.23514H19.7648Z" fill="#627739"/>
<path d="M11.2941 8.47072H12.7059V9.88212H11.2941V8.47072Z" fill="#78716C"/>
<path d="M18.353 15.5292V18.3529H7.05889V15.5292H8.47077V16.941H16.9411V15.5292H18.353Z" fill="#78716C"/>
<path d="M14.1178 11.294H15.5292V12.7059H14.1178V11.294Z" fill="#78716C"/>
<path d="M14.1178 12.7059V14.1177H7.05889V12.7059H8.47077V11.294H9.88218V12.7059H14.1178Z" fill="#78716C"/>
<path d="M6.35296 7.76478L7.05889 8.47072V9.88212H5.64702V8.47072L6.35296 7.76478Z" fill="#78716C"/>
<path d="M18.353 19.7648V22.5881H2.82374V19.7648H4.23514V21.1762H16.9411V19.7648H18.353Z" fill="#78716C"/>
<path d="M5.64703 7.05889H9.88219V8.47076L5.64702 8.47072L5.64703 7.05889Z" fill="#D6D3D1"/>
<path d="M16.9411 4.23514H18.353V5.64701H16.9411V4.23514Z" fill="#3F4B29"/>
</svg>
