<svg width="24" height="24" viewBox="0 0 24 24" fill="none" xmlns="http://www.w3.org/2000/svg">
<g clip-path="url(#clip0_19336_23946)">
<path d="M21.1763 9.88219H19.7648V7.05891H18.353V5.64704H16.9411V4.23516H14.1178V2.82376H12.7059L12 2.51208L11.2941 2.82376H9.88219V4.23516H7.05891V5.64704H5.64703V7.05891H4.23516V9.88219H2.82375V14.1178H4.23516V16.9411H5.64703V18.353H7.05891V19.7649H9.88219V21.1763H11.2941L12 21.5701L12.7059 21.1763H14.1178V19.7649H16.9411V18.353H18.353V16.9411H19.7648V14.1178H21.1763V12.7059L21.5548 12L21.1763 11.2941V9.88219Z" fill="#292524"/>
<path d="M2.82375 11.2941L2.42123 12L2.82375 12.7059" fill="#292524"/>
<path d="M21.1763 15.5293H22.5881V16.9412H21.1763V15.5293Z" fill="#FB923C"/>
<path d="M21.1763 7.05898H22.5881V8.47086H21.1763V7.05898Z" fill="#FB923C"/>
<path d="M15.5292 21.1763H16.9411V22.5882H15.5292V21.1763Z" fill="#FB923C"/>
<path d="M15.5292 1.41191H16.9411V2.82379H15.5292V1.41191Z" fill="#FB923C"/>
<path d="M18.353 9.88221V7.05893H16.9411V5.64706H14.1178V4.23518H9.8822V5.64706H7.05891V7.05893H5.64704V9.88221H4.23516V14.1178H5.64704V16.9411H7.05891V18.353H9.8822V19.7649H14.1178V18.353H16.9411V16.9411H18.353V14.1178H19.7649V9.88221H18.353ZM15.5292 14.1178V15.5292H14.1178V16.9411H9.8822V15.5292H8.47079V14.1178H7.05891V9.88221H8.47079V8.47081H9.8822V7.05893H14.1178V8.47081H15.5292V9.88221H16.9411V14.1178H15.5292Z" fill="#FACC15"/>
<path d="M7.05891 21.1763H8.47079V22.5882H7.05891V21.1763Z" fill="#FB923C"/>
<path d="M7.05891 1.41191H8.47079V2.82379H7.05891V1.41191Z" fill="#FB923C"/>
<path d="M1.41188 15.5293H2.82376V16.9411H1.41188V15.5293Z" fill="#FB923C"/>
<path d="M1.41188 7.05896H2.82376V8.47084H1.41188V7.05896Z" fill="#FB923C"/>
<path d="M21.1762 11.2941H24V12.706H21.1762V11.2941Z" fill="#EA580C"/>
<path d="M19.7648 19.7648H21.1763V21.1763H19.7648V19.7648Z" fill="#EA580C"/>
<path d="M19.7648 2.82378H21.1763V4.23519H19.7648V2.82378Z" fill="#EA580C"/>
<path d="M18.353 18.353H19.7648L19.7648 19.7648L18.353 19.7648V18.353Z" fill="#EA580C"/>
<path d="M18.353 4.23516L19.7648 4.23519L19.7648 5.64703H18.353V4.23516Z" fill="#EA580C"/>
<path d="M14.1178 9.88216L14.1178 8.47081H9.8822L9.88219 9.88216L8.47079 9.88221V14.1178L9.88219 14.1178L9.8822 15.5292H14.1178L14.1178 14.1178L15.5292 14.1178V9.88221L14.1178 9.88216Z" fill="#FB923C"/>
<path d="M11.2941 21.1762H12.7059V24H11.2941V21.1762Z" fill="#EA580C"/>
<path d="M11.2941 0H12.7059V2.82375H11.2941V0Z" fill="#EA580C"/>
<path d="M4.23516 18.353H5.64703V19.7648H4.23516V18.353Z" fill="#EA580C"/>
<path d="M4.23516 4.23516H5.64703V5.64703H4.23516V4.23516Z" fill="#EA580C"/>
<path d="M2.82375 19.7648L4.23516 19.7648L4.23516 21.1763H2.82375V19.7648Z" fill="#EA580C"/>
<path d="M2.82375 2.82378H4.23516L4.23516 4.23516L2.82375 4.23519V2.82378Z" fill="#EA580C"/>
<path d="M0 11.2941H2.82375V12.706H0V11.2941Z" fill="#EA580C"/>
<path d="M18.353 9.8822H19.7648V14.1178H18.353V9.8822Z" fill="#FB923C"/>
<path d="M16.9411 14.1178L18.353 14.1178L18.353 16.9411H16.9411V14.1178Z" fill="#FB923C"/>
<path d="M16.9411 7.05894H18.353L18.353 9.8822L16.9411 9.88222V7.05894Z" fill="#FB923C"/>
<path d="M14.1178 5.64705H16.9411L16.9411 7.05894L14.1178 7.05892V5.64705Z" fill="#FB923C"/>
<path d="M14.1178 16.9411L16.9411 16.9411L16.9411 18.3529H14.1178V16.9411Z" fill="#FB923C"/>
<path d="M12.7059 18.353L14.1178 18.3529L14.1178 19.7648H12.7059V18.353Z" fill="#FB923C"/>
<path d="M12.7059 4.23511H14.1178L14.1178 5.64705L12.7059 5.64698V4.23511Z" fill="#FB923C"/>
<path d="M14.1178 9.88218H15.5292V14.1178H14.1178V9.88218Z" fill="#EA580C"/>
<path d="M12.7059 14.1178L14.1178 14.1178L14.1178 15.5293H12.7059V14.1178Z" fill="#EA580C"/>
<path d="M12.7059 8.47075H14.1178L14.1178 9.88218L12.7059 9.88216V8.47075Z" fill="#EA580C"/>
</g>
<defs>
<clipPath id="clip0_19336_23946">
<rect width="24" height="24" fill="white"/>
</clipPath>
</defs>
</svg>
