<svg width="24" height="24" viewBox="0 0 24 24" fill="none" xmlns="http://www.w3.org/2000/svg">
<g clip-path="url(#clip0_19336_23941)">
<path d="M24 4.23516V12.7059H22.5881V14.1178H21.1763V15.5292H19.7648V16.9411H15.5292V19.7648H16.9411V21.1763H18.353V24H5.64703V21.1763H7.05891V19.7648H8.47078V16.9411H4.23516V15.5292H2.82375V14.1178H1.41188V12.7059H0V7.05891H1.41188V5.64703H2.82375V4.23516H1.41188V2.82375H2.82375V1.41188H4.23516V0H8.47078V1.41188H9.88219V0H15.5292V1.41188H16.9411V2.82375H18.353V1.41188H21.1763V2.82375H22.5881V4.23516H24Z" fill="#292524"/>
<path d="M18.353 11.2941V14.1178H16.9411V15.5292H15.5292V16.9411H14.1178V19.7649H15.5292V21.1763L12 22.3298L8.47078 21.1763V19.7649H9.88219V16.9411H8.47078V15.5292H7.05891V12.706H8.47078V14.1178H11.2941V9.8822H12.7059V14.1178H15.5292V12.706H16.9411V11.2941H18.353Z" fill="#CA8A04"/>
<path d="M22.5881 4.23514V7.05889L21.8822 7.76483L22.5881 8.47077V11.294L20.4703 11.8884V9.17624L16.9411 9.88217L15.5292 10.5881L14.1178 9.88217L12 7.76483L9.88218 9.88217L5.64702 11.294L4.74374 13.545L2.82374 12.7059L1.41187 11.294V7.05889H2.82374V5.64702H4.23515V4.23514L3.52968 3.52967L4.23515 2.82374L6.35296 2.1178L9.17624 3.52967L9.88218 2.82374L12.7059 2.1178L15.5292 2.82374L16.9411 4.23514H18.353L19.7648 3.52967L21.1762 4.23514H22.5881Z" fill="#7F974B"/>
<path d="M18.353 2.82388H21.1763V4.23528H18.353V2.82388Z" fill="#B8C88E"/>
<path d="M15.5293 2.82388H16.9411V4.23528H15.5293V2.82388Z" fill="#B8C88E"/>
<path d="M2.82379 2.82388H4.23519V4.23528H2.82379V2.82388Z" fill="#B8C88E"/>
<path d="M9.88222 2.82386V4.23527H8.47082L7.05894 2.82386L4.23519 2.82388L4.23519 1.41199H8.47082V2.82386H9.88222Z" fill="#B8C88E"/>
<path d="M9.88222 1.41199H15.5292L15.5293 2.82388L9.88222 2.82386L9.88222 1.41199Z" fill="#B8C88E"/>
<path d="M16.9411 9.88225V11.2941H15.5292V12.706H14.1178V9.88225H16.9411Z" fill="#627739"/>
<path d="M9.88221 9.88225V12.706H8.47081V11.2941H5.64706V15.5293H4.23518V14.1179H2.82378V12.706H4.23518V11.2941L5.64706 9.88225H9.88221Z" fill="#627739"/>
<path d="M11.2941 7.05898H12.706V8.47086H11.2941V7.05898Z" fill="#627739"/>
<path d="M1.4119 11.2941H2.82377L2.82378 12.706L1.4119 12.706V11.2941Z" fill="#627739"/>
<path d="M9.88221 8.4708L11.2941 8.47086L11.2941 9.88221L9.88221 9.88225L9.88221 8.4708Z" fill="#627739"/>
<path d="M12.706 8.47086L14.1178 8.4708L14.1178 9.88225L12.706 9.88221L12.706 8.47086Z" fill="#627739"/>
<path d="M18.353 14.1178H19.7649V15.5293H18.353V14.1178Z" fill="#627739"/>
<path d="M22.5881 11.2941V12.706H21.1763V14.1178L19.7649 14.1178L19.7649 9.88221L16.9411 9.88225L16.9411 8.4708H19.7649L21.1763 9.88221V11.2941H22.5881Z" fill="#627739"/>
<path d="M15.5293 5.64715H16.9411V7.05903H15.5293V8.4709L14.1178 8.4708L14.1178 7.05903L12.706 7.05898L12.706 5.64715H14.1178V4.23528L15.5293 4.23528L15.5293 5.64715Z" fill="#F43F5E"/>
<path d="M22.5882 7.05904V8.47092H21.1763L21.1763 9.88221H19.7649V8.4708L18.353 8.47092V7.05904H19.7649V5.64717H21.1763V7.05904H22.5882Z" fill="#F43F5E"/>
<path d="M8.47082 4.23527H9.88222L9.88222 5.64718H8.47081V7.05906H7.05894V5.64718H5.64706V4.23531H7.05894L7.05894 2.82386H8.47082V4.23527Z" fill="#F43F5E"/>
<path d="M5.64707 8.47093H7.05894V9.88234L5.64706 9.88225V11.2941H4.23518L4.23519 9.88234H2.82379V8.47093H4.23519V7.05906H5.64707V8.47093Z" fill="#F43F5E"/>
<path d="M19.7649 7.05904H21.1763V8.47092L19.7649 8.4708L19.7649 7.05904Z" fill="#FFE4E6"/>
<path d="M14.1178 5.64715H15.5293V7.05903H14.1178V5.64715Z" fill="#FFE4E6"/>
<path d="M7.05894 4.23531L8.47082 4.23527L8.47081 5.64718H7.05894V4.23531Z" fill="#FFE4E6"/>
<path d="M4.23519 8.47093H5.64707L5.64706 9.88225L4.23519 9.88234V8.47093Z" fill="#FFE4E6"/>
<path d="M16.9411 21.1763V22.5882H7.05893V21.1763H9.88221V19.7649H14.1178V21.1763H16.9411Z" fill="#A16207"/>
</g>
<defs>
<clipPath id="clip0_19336_23941">
<rect width="24" height="24" fill="white"/>
</clipPath>
</defs>
</svg>
