<svg width="24" height="24" viewBox="0 0 24 24" fill="none" xmlns="http://www.w3.org/2000/svg">
<path d="M21.1767 4.23516V2.82375H19.7649V1.41187H18.353V0H16.9411V1.41187H15.5297V2.82375H14.1178V4.23516H12.7059V8.47078H14.1178V9.88219H15.5297V11.2941H19.7649V9.88219H21.1767V8.47078H22.5881V4.23516H21.1767Z" fill="#292524"/>
<path d="M16.9411 15.5292H15.5297V14.1178H14.1178V12.7059H12.7059V14.1178H11.2941V15.5292H9.88265V16.9411H8.47077V21.1762H9.88265V22.5881H11.2941V24H15.5297V22.5881H16.9411V21.1762H18.353V16.9411H16.9411V15.5292Z" fill="#292524"/>
<path d="M8.47078 14.1178H9.88266V12.7059H11.2941V8.47078H9.88266V7.05891H8.47078V5.64703H7.05891V4.23516H5.64703V5.64703H4.23562V7.05891H2.82375V8.47078H1.41187V12.7059H2.82375V14.1178H4.23562V15.5292H8.47078V14.1178Z" fill="#292524"/>
<path d="M19.7646 4.23515V2.82374H18.3527V1.41187H16.9409V2.82374H15.5295V4.23515H14.1176V8.47077H15.5295V9.88218H19.7646V8.47077H21.1765V4.23515H19.7646Z" fill="#6898C9"/>
<path d="M15.5295 15.5292H14.1176V14.1178H12.7057V15.5292H11.2938V16.9411H9.88242V21.1762H11.2938V22.5881H15.5295V21.1762H16.9409V16.9411H15.5295V15.5292Z" fill="#6898C9"/>
<path d="M9.88243 8.47077H8.47056V7.0589H7.05868V5.64702H5.64681V7.0589H4.2354V8.47077H2.82353V12.7059H4.2354V14.1178H8.47056V12.7059H9.88243V8.47077Z" fill="#6898C9"/>
<path d="M18.3527 2.82375H19.7646V4.23516H18.3527V2.82375Z" fill="#8FB8D8"/>
<path d="M16.9409 1.41187H18.3527L18.3527 2.82375L16.9409 2.82374V1.41187Z" fill="#8FB8D8"/>
<path d="M19.7646 4.23516L19.7646 7.05888H18.3527V8.47076H16.9409V9.88216H19.7646V8.47076H21.1765V4.23513L19.7646 4.23516Z" fill="#8FB8D8"/>
<path d="M15.5294 19.7648H14.1176V21.1762H12.7057V22.5881H15.5294V21.1762H16.9409V16.941H15.5294V19.7648Z" fill="#8FB8D8"/>
<path d="M14.1176 15.5292H15.5295L15.5294 16.941L14.1176 16.9411V15.5292Z" fill="#8FB8D8"/>
<path d="M12.7057 14.1178H14.1176L14.1176 15.5292L12.7057 15.5292V14.1178Z" fill="#8FB8D8"/>
<path d="M8.47055 11.294H7.05867V12.7059H5.6468V14.1178H8.47055V12.7059H9.88242V8.47073H8.47055V11.294Z" fill="#8FB8D8"/>
<path d="M7.05867 7.05891H8.47054L8.47055 8.47073L7.05867 8.47079V7.05891Z" fill="#8FB8D8"/>
<path d="M5.6468 5.64702H7.05867L7.05867 7.05891L5.6468 7.0589V5.64702Z" fill="#8FB8D8"/>
</svg>
