<svg width="24" height="24" viewBox="0 0 24 24" fill="none" xmlns="http://www.w3.org/2000/svg">
<g clip-path="url(#clip0_19336_23938)">
<path d="M14.6087 6.26086H9.39131V7.82606H14.6087V6.26086Z" fill="black"/>
<path d="M14.6087 16.1739H9.39131V17.7391H14.6087V16.1739Z" fill="black"/>
<path d="M17.7391 9.39131H16.1739V14.6087H17.7391V9.39131Z" fill="black"/>
<path d="M7.82606 9.39131H6.26086V14.6087H7.82606V9.39131Z" fill="black"/>
<path d="M9.39131 7.82606L7.82611 7.82611L7.82606 9.39131L9.39131 9.39131V7.82606Z" fill="black"/>
<path d="M16.1739 7.82611L14.6087 7.82606L14.6087 9.39131L16.1739 9.39131V7.82611Z" fill="black"/>
<path d="M9.39131 14.6087L7.82606 14.6087L7.82611 16.1739H9.39131V14.6087Z" fill="black"/>
<path d="M16.1739 14.6087L14.6087 14.6087L14.6087 16.1739H16.1739V14.6087Z" fill="black"/>
<path d="M8.86955 1.5652V3.13045H5.73914V4.69566H10.4348V1.5652H8.86955Z" fill="black"/>
<path d="M3.13041 3.13045H1.5652V5.73914H3.13041V3.13045Z" fill="black"/>
<path d="M5.73914 1.5652H3.13045L3.13041 3.13045L5.73914 3.13045V1.5652Z" fill="black"/>
<path d="M20.8695 1.5652H18.2609V3.13041H20.8695V1.5652Z" fill="black"/>
<path d="M22.4347 3.13045L20.8695 3.13041L20.8695 5.73914H22.4347V3.13045Z" fill="black"/>
<path d="M15.1305 3.13045V1.5652H13.5652V4.69566H18.2609V3.13041L15.1305 3.13045Z" fill="black"/>
<path d="M13.5653 0H10.4348L10.4348 1.5652H13.5652L13.5653 0Z" fill="black"/>
<path d="M1.5652 13.5652V15.1305H3.13045V18.2609H4.69566V13.5652H1.5652Z" fill="black"/>
<path d="M3.13045 18.2609L1.5652 18.2609V20.8695H3.13041L3.13045 18.2609Z" fill="black"/>
<path d="M5.73914 20.8695L3.13041 20.8695L3.13045 22.4348H5.73914V20.8695Z" fill="black"/>
<path d="M13.5652 19.3043V22.4348H15.1305V20.8695H18.2609V19.3043H13.5652Z" fill="black"/>
<path d="M19.3043 13.5652V18.2609H20.8695V15.1305H22.4348V13.5652H19.3043Z" fill="black"/>
<path d="M22.4347 18.2609L20.8695 18.2609L20.8695 20.8695H22.4347V18.2609Z" fill="black"/>
<path d="M20.8695 20.8695H18.2609V22.4348H20.8695L20.8695 20.8695Z" fill="black"/>
<path d="M5.73914 19.3043V20.8695L8.86955 20.8695V22.4348H10.4348V19.3043H5.73914Z" fill="black"/>
<path d="M13.5652 22.4348H10.4348L10.4348 24H13.5653L13.5652 22.4348Z" fill="black"/>
<path d="M20.8695 8.86955L20.8695 5.73914L19.3043 5.73914V10.4348H22.4348V8.86955H20.8695Z" fill="black"/>
<path d="M24 10.4348L22.4348 10.4348V13.5652L24 13.5653V10.4348Z" fill="black"/>
<path d="M1.5652 10.4348H0V13.5653L1.5652 13.5652V10.4348Z" fill="black"/>
<path d="M3.13041 5.73914L3.13045 8.86956H1.5652V10.4348L4.69566 10.4348V5.73915L3.13041 5.73914Z" fill="black"/>
</g>
<defs>
<clipPath id="clip0_19336_23938">
<rect width="24" height="24" fill="white"/>
</clipPath>
</defs>
</svg>
