<svg width="24" height="24" viewBox="0 0 24 24" fill="none" xmlns="http://www.w3.org/2000/svg">
<path d="M3.13041 3.39137H1.5652V4.95658H3.13041V3.39137Z" fill="black"/>
<path d="M22.4347 3.39137H20.8695V4.95658H22.4347V3.39137Z" fill="black"/>
<path d="M14.6087 3.39137H13.0435V4.95658H14.6087V3.39137Z" fill="black"/>
<path d="M3.13041 14.3479H1.5652V15.9131H3.13041V14.3479Z" fill="black"/>
<path d="M22.4347 14.3479H20.8695V15.9131H22.4347V14.3479Z" fill="black"/>
<path d="M10.9566 19.0435H7.82611V20.6087H10.9566V19.0435Z" fill="black"/>
<path d="M16.1739 19.0435H13.0435V20.6087H16.1739V19.0435Z" fill="black"/>
<path d="M10.9565 3.39137H9.39131V4.95658H10.9565V3.39137Z" fill="black"/>
<path d="M13.0435 4.95658H10.9565V6.52178H13.0435V4.95658Z" fill="black"/>
<path d="M19.3043 17.4783H16.1739L16.1739 19.0435H19.3043V17.4783Z" fill="black"/>
<path d="M7.82611 17.4783H4.69566V19.0435H7.82611V17.4783Z" fill="black"/>
<path d="M4.69566 15.9131H3.13041L3.13045 17.4783L4.69566 17.4783L4.69566 15.9131Z" fill="black"/>
<path d="M20.8695 15.9131H19.3043V17.4783L20.8695 17.4783L20.8695 15.9131Z" fill="black"/>
<path d="M13.0435 20.6087H10.9566L10.9565 22.174H13.0435V20.6087Z" fill="black"/>
<path d="M9.39131 1.82617H3.13045L3.13041 3.39137H9.39131V1.82617Z" fill="black"/>
<path d="M20.8695 1.82617H14.6087V3.39137H20.8695L20.8695 1.82617Z" fill="black"/>
<path d="M1.5652 4.95658L0 4.95658V14.3479L1.5652 14.3479V4.95658Z" fill="black"/>
<path d="M24 4.95658L22.4347 4.95658V14.3479L24 14.3479V4.95658Z" fill="black"/>
</svg>
