<svg width="24" height="24" viewBox="0 0 24 24" fill="none" xmlns="http://www.w3.org/2000/svg">
<g clip-path="url(#clip0_19336_23939)">
<path d="M13.0435 0H10.9565V1.5652H13.0435V0Z" fill="black"/>
<path d="M9.39131 3.13045H7.82611V4.69565H9.39131V3.13045Z" fill="black"/>
<path d="M7.82611 4.69565L6.26086 4.69565V6.26086H7.82606L7.82611 4.69565Z" fill="black"/>
<path d="M6.26086 6.26086L4.69566 6.26086V7.82606H6.26086V6.26086Z" fill="black"/>
<path d="M4.69566 7.82606L3.13045 7.82611V9.39131H4.69566L4.69566 7.82606Z" fill="black"/>
<path d="M3.13045 9.39131L1.5652 9.39131V10.9565H3.13041L3.13045 9.39131Z" fill="black"/>
<path d="M1.5652 10.9565H0V12.5217H1.5652V10.9565Z" fill="black"/>
<path d="M16.1739 0V3.13045H14.6087V4.69566H16.1739V6.26086H17.7391V1.5652H19.3043V9.39131H20.8695V0H16.1739Z" fill="black"/>
<path d="M14.6087 1.5652L13.0435 1.5652V3.13041L14.6087 3.13045V1.5652Z" fill="black"/>
<path d="M10.9565 1.5652L9.39131 1.5652V3.13045L10.9565 3.13041V1.5652Z" fill="black"/>
<path d="M20.8695 12.5217V22.4348H16.6957V13.0435H7.30434V22.4348H3.13045V12.5217L1.5652 12.5217V24H8.86955V14.6087H15.1305V24H22.4348V12.5217H20.8695Z" fill="black"/>
<path d="M22.4347 9.39131L20.8695 9.39131L20.8695 10.9565H22.4347V9.39131Z" fill="black"/>
<path d="M24 10.9565H22.4347L22.4348 12.5217L24 12.5217V10.9565Z" fill="black"/>
</g>
<defs>
<clipPath id="clip0_19336_23939">
<rect width="24" height="24" fill="white"/>
</clipPath>
</defs>
</svg>
